<svg width="20" height="20" viewBox="0 0 20 20" fill="none" xmlns="http://www.w3.org/2000/svg">
<g id="Group 206">
<rect id="Rectangle 757" width="20" height="20" rx="5.33333" fill="url(#paint0_linear_1_364)"/>
<path id="Rectangle 761" d="M7.99992 13.3333H11.9999C11.971 14.7691 12.4092 15.1368 13.6666 15.3333V16H6.33325V15.3333C7.71684 15.1866 8.0827 14.7516 7.99992 13.3333Z" fill="#FFFFFD"/>
<path id="Subtract" fill-rule="evenodd" clip-rule="evenodd" d="M4 6.33333C4 5.59695 4.59695 5 5.33333 5H14.6667C15.403 5 16 5.59695 16 6.33333V12C16 12.7364 15.403 13.3333 14.6667 13.3333H5.33333C4.59695 13.3333 4 12.7364 4 12V6.33333ZM6.66667 8.16667C6.66667 7.89052 6.89052 7.66667 7.16667 7.66667H12.1667C12.4428 7.66667 12.6667 7.89052 12.6667 8.16667C12.6667 8.44281 12.4428 8.66667 12.1667 8.66667H7.16667C6.89052 8.66667 6.66667 8.44281 6.66667 8.16667ZM7.16667 10C6.89052 10 6.66667 10.2239 6.66667 10.5C6.66667 10.7761 6.89052 11 7.16667 11H10.1667C10.4428 11 10.6667 10.7761 10.6667 10.5C10.6667 10.2239 10.4428 10 10.1667 10H7.16667Z" fill="#FFFFFD"/>
</g>
<defs>
<linearGradient id="paint0_linear_1_364" x1="10" y1="0" x2="10" y2="20" gradientUnits="userSpaceOnUse">
<stop stop-color="#49B0FF"/>
<stop offset="1" stop-color="#1694FF"/>
</linearGradient>
</defs>
</svg>
