<svg width="20" height="20" viewBox="0 0 20 20" fill="none" xmlns="http://www.w3.org/2000/svg">
<g id="Group 209">
<rect id="Rectangle 753" width="20" height="20" rx="5.33333" fill="url(#paint0_linear_7_205)"/>
<path id="Vector" d="M11.2522 5.06186C11.2411 4.77077 11.1154 4.49587 10.9025 4.29708C10.6896 4.0983 10.4067 3.99175 10.1155 4.00067C9.82358 3.99048 9.53949 4.09645 9.32554 4.29537C9.11159 4.4943 8.98524 4.76993 8.97418 5.06186V5.2175C8.1604 5.51907 7.45688 6.05974 6.95604 6.7685C6.4552 7.47725 6.18046 8.32093 6.16793 9.18869V10.6036C6.16793 10.6036 6.16793 12.7307 5.63498 12.7307C5.48444 12.724 5.33714 12.7757 5.22379 12.875C5.11044 12.9743 5.03979 13.1135 5.02657 13.2636C5.02461 13.3342 5.03707 13.4043 5.06316 13.4699C5.08925 13.5354 5.12844 13.595 5.17832 13.6448C5.2282 13.6947 5.28774 13.7339 5.35328 13.76C5.41882 13.7861 5.489 13.7985 5.55952 13.7966H14.4593C14.5914 13.7841 14.7141 13.7228 14.8034 13.6247C14.8927 13.5266 14.9422 13.3987 14.9422 13.266C14.9422 13.1333 14.8927 13.0054 14.8034 12.9073C14.7141 12.8092 14.5914 12.7479 14.4593 12.7354C13.9264 12.7354 13.9264 10.6083 13.9264 10.6083V9.08965C13.963 8.24312 13.7239 7.40756 13.2451 6.70849C12.7663 6.00941 12.0736 5.48457 11.2711 5.21278V5.06186H11.2522Z" fill="white"/>
<path id="Vector_2" d="M11.79 14.405C11.7863 14.6197 11.7401 14.8316 11.6539 15.0283C11.5678 15.2249 11.4435 15.4026 11.2882 15.5509C11.1329 15.6992 10.9497 15.8151 10.7492 15.8921C10.5487 15.969 10.335 16.0054 10.1204 15.9992C9.90534 16.0061 9.69108 15.9702 9.49007 15.8935C9.28906 15.8168 9.1053 15.7009 8.94949 15.5526C8.79368 15.4042 8.66893 15.2264 8.5825 15.0294C8.49607 14.8324 8.44969 14.6201 8.44604 14.405H11.79Z" fill="white"/>
</g>
<defs>
<linearGradient id="paint0_linear_7_205" x1="10" y1="0" x2="10" y2="20" gradientUnits="userSpaceOnUse">
<stop stop-color="#FF8C85"/>
<stop offset="1" stop-color="#FA5032"/>
</linearGradient>
</defs>
</svg>
