<svg width="160" height="160" viewBox="0 0 160 160" fill="none" xmlns="http://www.w3.org/2000/svg">
<path d="M92.8645 37.025V33.7778" stroke="#5C5551" stroke-width="0.888889"/>
<path d="M97.4653 37.025L99.3595 33.7778" stroke="#5C5551" stroke-width="0.888889"/>
<path d="M100.441 41.3544L104.229 40.272" stroke="#5C5551" stroke-width="0.888889"/>
<path d="M45.5097 79.2378C41.541 82.1242 32.8459 88.7087 29.8152 91.9558" stroke="#5C5551" stroke-width="0.888889"/>
<path d="M23.3219 97.3682C19.0826 101.247 11.2534 110.357 13.8511 115.769C16.4488 121.181 40.5496 112.973 52.2753 108.192" stroke="#5C5551" stroke-width="0.888889"/>
<path d="M17.6392 123.886C19.3529 125.33 24.0767 126.595 30.3571 126.051C42.5005 125 51.4635 119.828 55.2519 117.122" stroke="#5C5551" stroke-width="0.888889"/>
<path d="M102.876 47.0371C111.174 43.5193 129.557 36.8085 136.7 38.1074" stroke="#5C5551" stroke-width="0.888889"/>
<path d="M140.76 46.2251C139.136 51.637 130.207 60.8373 115.594 71.1199" stroke="#5C5551" stroke-width="0.888889"/>
<path d="M145.63 48.6606C147.705 50.3744 148.065 57.1032 132.912 70.3083" stroke="#5C5551" stroke-width="0.888889"/>
<path d="M117.759 82.485C120.014 81.0418 124.74 77.7225 125.606 75.9907" stroke="#5C5551" stroke-width="0.888889"/>
<path d="M119.924 46.7668C123.441 45.5942 130.693 43.9526 131.559 46.7668C132.425 49.581 125.426 55.8768 121.818 58.6729" stroke="#5C5551" stroke-width="0.888889"/>
<path d="M90.9701 40.8135L47.1337 52.1785L64.1812 112.792" stroke="#5C5551" stroke-width="0.888889"/>
<path d="M88.2645 46.7666L97.7354 43.79C99.3792 49.6496 100.842 54.8633 102.214 59.7552M71.217 115.498L114.512 103.592C113.934 101.532 113.379 99.5526 112.842 97.6386" stroke="#5C5551" stroke-width="0.888889"/>
<path d="M42.5339 52.9902L57.6873 109.815" stroke="#5C5551" stroke-width="0.888889"/>
<path d="M62.0173 80.8613L78.5236 76.5317" stroke="#5C5551" stroke-width="0.888889"/>
<path d="M63.0989 86.5439L80.417 82.2144" stroke="#5C5551" stroke-width="0.888889"/>
<path d="M64.7231 91.956L82.3118 87.6265" stroke="#5C5551" stroke-width="0.888889"/>
<path d="M66.3462 97.9089L75.5464 95.7441" stroke="#5C5551" stroke-width="0.888889"/>
<path d="M69.323 110.627L67.6995 103.862L84.747 98.9917L86.9117 105.486L69.323 110.627Z" fill="#64605D"/>
<path d="M66.3466 71.3909L63.6406 61.3788L74.1938 58.6729L76.6292 68.1437L66.3466 71.3909Z" fill="#ADADAD"/>
<path d="M70.7721 61.3784C70.7721 65.1528 67.5943 68.24 63.6399 68.24C59.6855 68.24 56.5077 65.1528 56.5077 61.3784C56.5077 57.6039 59.6855 54.5167 63.6399 54.5167C67.5943 54.5167 70.7721 57.6039 70.7721 61.3784Z" stroke="#5C5551" stroke-width="0.888889"/>
<path d="M41.1806 90.8735C35.3177 95.2933 23.8625 104.945 24.9449 108.192C26.0273 111.439 36.2197 108.101 41.1806 106.027" stroke="#5C5551" stroke-width="0.888889"/>
<path d="M25.7574 98.9912L22.2396 93.5793L28.1927 90.0615L31.1693 95.2028L25.7574 98.9912Z" fill="#64605D"/>
<path d="M33.6038 111.168L31.9802 113.063C32.8822 115.047 35.2274 117.392 36.0392 116.851C36.8509 116.31 36.4901 112.341 36.0392 111.168H33.6038Z" fill="#ADADAD" stroke="white" stroke-width="0.811787"/>
<path d="M128.582 77.0731L126.418 72.2024L131.018 70.0376L128.582 77.0731Z" fill="#64605D"/>
<path d="M143.291 41.0838C143.291 42.9305 141.794 44.4277 139.947 44.4277C138.1 44.4277 136.603 42.9305 136.603 41.0838C136.603 39.237 138.1 37.7399 139.947 37.7399C141.794 37.7399 143.291 39.237 143.291 41.0838Z" stroke="#5C5551" stroke-width="0.888889"/>
<path d="M109.197 74.638C109.197 81.566 103.581 87.1822 96.6526 87.1822C89.7247 87.1822 84.1085 81.566 84.1085 74.638C84.1085 67.7101 89.7247 62.0939 96.6526 62.0939C103.581 62.0939 109.197 67.7101 109.197 74.638Z" stroke="#5C5551" stroke-width="0.888889"/>
<rect x="-0.628538" width="5.21842" height="20.0651" rx="2.60921" transform="matrix(0.707106 -0.707108 0.707106 0.707108 100.257 81.0433)" fill="#64605D" stroke="white" stroke-width="0.888889"/>
</svg>
