<svg width="160" height="160" viewBox="0 0 160 160" fill="none" xmlns="http://www.w3.org/2000/svg">
<g clip-path="url(#clip0_1434_9604)">
<path d="M32.0001 83.9644C19.3936 96.489 13.7214 108.912 18.4143 117.157C26.3841 131.16 61.2307 127.811 96.2464 109.676C131.262 91.5406 153.187 65.4878 145.217 51.4849C144.312 49.8943 143.06 48.5276 141.5 47.381" stroke="#5C5551"/>
<path d="M149.25 47.2978C150.81 48.4443 152.062 49.811 152.967 51.4016C155.923 56.5944 154.767 63.4444 150.357 70.9331" stroke="#5C5551" stroke-width="0.733333"/>
<path d="M35.3572 89.3335C28.7761 95.8718 24.0848 102.382 21.7714 108.286" stroke="#5C5551" stroke-width="0.733333"/>
<path d="M51.9366 136.334C67.1124 148.966 91.7905 145.951 102.757 121.743C111.044 103.449 140.926 108.236 144.512 81.904C146.517 67.1785 137.122 45.82 100.603 44.7343C72.1142 43.8873 71.3042 25.3902 44.1042 30.3236C16.385 35.3511 16.1899 66.4193 36.6387 90.1021C55.4249 111.859 33.0272 120.595 51.9366 136.334Z" fill="#F6F6F6"/>
<path d="M80.9356 109.203L50.6423 111.645C48.9449 111.781 47.4377 110.565 47.2132 108.877L39.9083 53.9731C39.6686 52.171 40.9764 50.5314 42.7867 50.3646L46.2689 50.0437" stroke="#5C5551" stroke-width="0.952"/>
<path d="M51.1866 40.0045C50.9798 38.4635 52.1025 37.0621 53.6516 36.9278L84.6568 34.2402L100.285 46.469L107.868 95.2577C108.111 96.8247 106.97 98.2677 105.389 98.3921L62.0801 101.8C60.638 101.913 59.3587 100.88 59.1662 99.4464L51.1866 40.0045Z" fill="white" stroke="#5C5551" stroke-width="0.951142"/>
<path d="M64.2884 87.0608C64.1337 85.8358 65.048 84.7357 66.2806 84.6637L92.6939 83.1218C93.7829 83.0582 94.7444 83.8264 94.9228 84.9026L95.4832 88.2825C95.6898 89.5284 94.7749 90.6799 93.5146 90.7604L66.9872 92.4547C65.8625 92.5265 64.8759 91.7112 64.7347 90.5931L64.2884 87.0608Z" fill="#ADADAD"/>
<path d="M61.3092 64.8386C61.1873 63.6311 62.0949 62.5562 63.3065 62.4854L89.8468 60.9361C90.8975 60.8747 91.827 61.6119 92.0065 62.649C92.2165 63.8619 91.3277 64.9888 90.0993 65.0673L63.5686 66.7618C62.4233 66.8349 61.4245 65.9804 61.3092 64.8386Z" fill="#EBEBEB"/>
<path d="M62.3752 73.0961C62.2534 71.8894 63.1605 70.8215 64.3711 70.7496L74.372 70.1561C75.4273 70.0935 76.3612 70.8334 76.5415 71.8751C76.7513 73.0864 75.8687 74.2138 74.6424 74.3011L64.6494 75.012C63.4987 75.0939 62.4911 74.2438 62.3752 73.0961Z" fill="#EBEBEB"/>
<path d="M66.9083 48.7289C66.3278 48.7807 65.9068 49.3047 65.9813 49.8827L66.6682 55.2118C66.739 55.761 67.2326 56.1551 67.7838 56.1026L74.4397 55.4686C75.0336 55.412 75.4544 54.8629 75.3545 54.2747L74.4597 49.0043C74.37 48.4763 73.8896 48.1059 73.3562 48.1535L66.9083 48.7289Z" fill="#ADADAD" stroke="#5C5551" stroke-width="0.986667"/>
<circle cx="64.2667" cy="48.5384" r="4.85776" stroke="#5C5551" stroke-width="0.951142"/>
<path d="M86.2544 45.4642L84.6667 34.8003L100.267 46.9336L88.4273 47.2825C87.347 47.3143 86.4136 46.5332 86.2544 45.4642Z" fill="#EBEBEB"/>
<mask id="path-13-inside-1_1434_9604" fill="white">
<path fill-rule="evenodd" clip-rule="evenodd" d="M125.843 82.2878C124.18 92.1101 115.631 99.5905 105.336 99.5905C93.8481 99.5905 84.5357 90.278 84.5357 78.7905C84.5357 70.4533 89.4409 63.2617 96.5228 59.9443C87.5507 62.8669 81.0667 71.2999 81.0667 81.2472C81.0667 93.6184 91.0955 103.647 103.467 103.647C115.489 103.647 125.299 94.1759 125.843 82.2878Z"/>
</mask>
<path fill-rule="evenodd" clip-rule="evenodd" d="M125.843 82.2878C124.18 92.1101 115.631 99.5905 105.336 99.5905C93.8481 99.5905 84.5357 90.278 84.5357 78.7905C84.5357 70.4533 89.4409 63.2617 96.5228 59.9443C87.5507 62.8669 81.0667 71.2999 81.0667 81.2472C81.0667 93.6184 91.0955 103.647 103.467 103.647C115.489 103.647 125.299 94.1759 125.843 82.2878Z" fill="#ADADAD"/>
<path d="M125.843 82.2878L126.793 82.3312L124.905 82.129L125.843 82.2878ZM96.5228 59.9443L96.9262 60.8057L96.2282 59.04L96.5228 59.9443ZM124.905 82.129C123.318 91.5015 115.16 98.6394 105.336 98.6394V100.542C116.103 100.542 125.042 92.7188 126.781 82.4466L124.905 82.129ZM105.336 98.6394C94.3734 98.6394 85.4868 89.7527 85.4868 78.7905H83.5845C83.5845 90.8033 93.3228 100.542 105.336 100.542V98.6394ZM85.4868 78.7905C85.4868 70.836 90.166 63.9723 96.9262 60.8057L96.1193 59.083C88.7157 62.551 83.5845 70.0706 83.5845 78.7905H85.4868ZM82.0178 81.2472C82.0178 71.7237 88.2252 63.6475 96.8174 60.8487L96.2282 59.04C86.8761 62.0863 80.1155 70.876 80.1155 81.2472H82.0178ZM103.467 102.696C91.6208 102.696 82.0178 93.0931 82.0178 81.2472H80.1155C80.1155 94.1437 90.5702 104.598 103.467 104.598V102.696ZM124.893 82.2443C124.372 93.6269 114.978 102.696 103.467 102.696V104.598C116 104.598 126.226 94.7249 126.793 82.3312L124.893 82.2443Z" fill="#5C5551" mask="url(#path-13-inside-1_1434_9604)"/>
<rect x="113.706" y="96.9833" width="7.92" height="21.2533" rx="3.69333" transform="rotate(-38.8016 113.706 96.9833)" fill="#ADADAD" stroke="#5C5551" stroke-width="0.986667"/>
<circle cx="105.469" cy="78.8002" r="21.2578" fill="white" stroke="#5C5551" stroke-width="0.951142"/>
<circle cx="105.467" cy="78.7188" r="18.2667" fill="#EBEBEB"/>
<mask id="mask0_1434_9604" style="mask-type:alpha" maskUnits="userSpaceOnUse" x="87" y="60" width="37" height="37">
<circle cx="105.467" cy="78.7188" r="18.2667" fill="#EBEBEB"/>
</mask>
<g mask="url(#mask0_1434_9604)">
<path d="M113.183 97.3637C110.491 96.555 85.5684 73.0979 73.4435 61.4704L75.8239 58.6358L120.475 99.1267L113.183 97.3637Z" fill="white" fill-opacity="0.8"/>
<path d="M129.46 97.8939L83.4683 55.9727L103.183 59.527L138.247 92.0785L129.46 97.8939Z" fill="white" fill-opacity="0.8"/>
<path d="M80.3844 71.889L107.601 97.3637L96.8014 106.586L76.9292 82.1769L80.3844 71.889Z" fill="white" fill-opacity="0.8"/>
</g>
<path d="M84.8 34.6714L86.2711 45.4212C86.4199 46.5088 87.3698 47.3059 88.4667 47.2637L100.4 46.8047" stroke="#5C5551" stroke-width="0.951142"/>
<path d="M92.4805 30.7312L92.1334 24.8047" stroke="#5C5551" stroke-width="0.5"/>
<path d="M102.126 38.2569L108.267 37.338" stroke="#5C5551" stroke-width="0.5"/>
<path d="M98.1763 33.3887L103.6 27.8712" stroke="#5C5551" stroke-width="0.5"/>
<path d="M145.217 51.4852C153.187 65.4881 131.262 91.541 96.2464 109.676C61.2308 127.811 26.3841 131.161 18.4143 117.158" stroke="#5C5551"/>
<circle cx="2.44358" cy="2.44358" r="3.87177" transform="matrix(0.998833 -0.0483049 0.0411211 0.999154 15.7334 99.436)" fill="#ADADAD" stroke="white" stroke-width="2.85637"/>
<path d="M103.867 130.4L105.487 134.779L109.867 136.4L105.487 138.02L103.867 142.4L102.246 138.02L97.8667 136.4L102.246 134.779L103.867 130.4Z" fill="#5C5551"/>
<path d="M31.6584 24.5332L32.5025 26.8142L34.7834 27.6582L32.5025 28.5022L31.6584 30.7832L30.8144 28.5022L28.5334 27.6582L30.8144 26.8142L31.6584 24.5332Z" fill="#5C5551"/>
<circle cx="131.151" cy="37.8621" r="5.06226" fill="#ADADAD"/>
<path d="M134.713 34.2647C135.444 34.0736 136.074 33.9754 136.57 33.9706C136.89 33.9675 137.131 34.0037 137.3 34.0641C137.466 34.1234 137.536 34.1954 137.566 34.2528C137.614 34.3435 137.636 34.5468 137.43 34.9351C137.232 35.308 136.869 35.7607 136.348 36.2633C135.31 37.2644 133.717 38.3975 131.812 39.4134C129.907 40.4292 128.078 41.1212 126.668 41.4249C125.961 41.5773 125.382 41.6267 124.962 41.5832C124.525 41.538 124.368 41.4067 124.32 41.316C124.288 41.2566 124.266 41.153 124.317 40.9694C124.368 40.7832 124.486 40.5476 124.685 40.2678C125.008 39.8153 125.51 39.2943 126.165 38.7418C126.115 38.4561 126.089 38.1621 126.089 37.862C126.089 37.8229 126.089 37.7838 126.09 37.7449C125.19 38.4526 124.47 39.1559 124.017 39.7915C123.786 40.1152 123.612 40.4394 123.526 40.7521C123.439 41.0673 123.436 41.4016 123.596 41.702C123.841 42.161 124.354 42.3452 124.878 42.3993C125.419 42.4553 126.092 42.3882 126.841 42.227C128.344 41.9032 130.245 41.1785 132.198 40.1374C134.15 39.0962 135.811 37.9212 136.918 36.8537C137.469 36.322 137.9 35.8002 138.155 35.3197C138.402 34.8547 138.535 34.3257 138.29 33.8667C138.136 33.5782 137.872 33.3971 137.577 33.2915C137.284 33.187 136.937 33.1465 136.562 33.1501C135.841 33.1571 134.936 33.3286 133.934 33.6325C134.214 33.8173 134.475 34.0293 134.713 34.2647Z" fill="#F6F6F6"/>
</g>
<defs>
<clipPath id="clip0_1434_9604">
<rect width="160" height="160" fill="white"/>
</clipPath>
</defs>
</svg>
