<svg width="24" height="24" viewBox="0 0 24 24" fill="none" xmlns="http://www.w3.org/2000/svg">
<g clip-path="url(#clip0_319_29003)">
<g clip-path="url(#clip1_319_29003)">
<path d="M22.6998 21.3333H1.30005C0.728524 21.3333 0.266602 20.9235 0.266602 20.4164V5.44497C0.266602 4.9379 0.728524 4.52808 1.30005 4.52808H22.6998C23.2713 4.52808 23.7333 4.9379 23.7333 5.44497V20.4164C23.7333 20.9212 23.2687 21.3333 22.6998 21.3333Z" fill="#85C6FF"/>
<path d="M12.0131 8.95888H0.266602V3.69892C0.266602 3.12809 0.72905 2.66675 1.30121 2.66675H9.34031C9.79756 2.66675 10.1999 2.96389 10.3305 3.40177L12.0131 8.95888Z" fill="#4093E5"/>
<path d="M22.6998 21.3334H1.30005C0.728524 21.3334 0.266602 20.8725 0.266602 20.3022V6.97502C0.266602 6.40475 0.728524 5.94385 1.30005 5.94385H22.6998C23.2713 5.94385 23.7333 6.40475 23.7333 6.97502V20.3022C23.7333 20.8698 23.2687 21.3334 22.6998 21.3334Z" fill="#51AEFF"/>
<mask id="mask0_319_29003" style="mask-type:alpha" maskUnits="userSpaceOnUse" x="7" y="9" width="10" height="9">
<rect x="7.7334" y="9.33325" width="8.53333" height="8.53333" fill="#D9D9D9"/>
</mask>
<g mask="url(#mask0_319_29003)">
<path d="M11.0396 15.7332H12.9574C13.048 15.7332 13.1244 15.7027 13.1866 15.6417C13.2488 15.5808 13.2799 15.5052 13.2799 15.4151C13.2799 15.3249 13.2493 15.2487 13.188 15.1865C13.1268 15.1243 13.0509 15.0932 12.9603 15.0932H11.0425C10.9519 15.0932 10.8755 15.1237 10.8133 15.1846C10.7511 15.2456 10.7199 15.3212 10.7199 15.4113C10.7199 15.5015 10.7506 15.5776 10.8118 15.6399C10.8731 15.7021 10.949 15.7332 11.0396 15.7332ZM11.0396 14.4532H12.9574C13.048 14.4532 13.1244 14.4227 13.1866 14.3617C13.2488 14.3008 13.2799 14.2252 13.2799 14.1351C13.2799 14.0449 13.2493 13.9687 13.188 13.9065C13.1268 13.8443 13.0509 13.8132 12.9603 13.8132H11.0425C10.9519 13.8132 10.8755 13.8437 10.8133 13.9046C10.7511 13.9656 10.7199 14.0412 10.7199 14.1313C10.7199 14.2215 10.7506 14.2976 10.8118 14.3599C10.8731 14.4221 10.949 14.4532 11.0396 14.4532ZM10.0774 17.0132C9.90133 17.0132 9.75105 16.9505 9.62661 16.8252C9.50216 16.6999 9.43994 16.5492 9.43994 16.3732V10.8265C9.43994 10.6505 9.50261 10.4999 9.62794 10.3745C9.75327 10.2492 9.90394 10.1865 10.0799 10.1865H12.5866C12.6709 10.1865 12.7512 10.2013 12.8276 10.231C12.904 10.2606 12.9748 10.308 13.0399 10.3732L14.3733 11.7065C14.4385 11.7717 14.4859 11.8425 14.5155 11.9189C14.5451 11.9952 14.5599 12.0756 14.5599 12.1599V16.3732C14.5599 16.5492 14.4972 16.6999 14.3718 16.8252C14.2464 16.9505 14.0957 17.0132 13.9196 17.0132H10.0774ZM12.4266 11.9999V10.8265H10.0799V16.3732H13.9199V12.3199H12.7466C12.6559 12.3199 12.5799 12.2892 12.5186 12.2279C12.4573 12.1665 12.4266 12.0905 12.4266 11.9999Z" fill="#357BBF"/>
</g>
</g>
</g>
<defs>
<clipPath id="clip0_319_29003">
<rect width="24" height="24" fill="white"/>
</clipPath>
<clipPath id="clip1_319_29003">
<rect width="24" height="24" fill="white"/>
</clipPath>
</defs>
</svg>
