<svg width="20" height="20" viewBox="0 0 20 20" fill="none" xmlns="http://www.w3.org/2000/svg">
<path fill-rule="evenodd" clip-rule="evenodd" d="M17.5291 10C17.5291 14.1421 14.1712 17.5 10.0291 17.5C7.83201 17.5 5.85558 16.5553 4.48387 15.0499C2.64184 15.4532 1.3002 15.335 0.87464 14.5979C0.417094 13.8054 1.10859 12.4536 2.5861 10.9293C2.54848 10.6248 2.5291 10.3147 2.5291 10C2.5291 5.85786 5.88696 2.5 10.0291 2.5C11.6575 2.5 13.1647 3.01898 14.3944 3.90056C16.8054 3.18255 18.6182 3.18072 19.1261 4.06044C19.6019 4.88447 18.8353 6.3133 17.2346 7.91188C17.4263 8.57473 17.5291 9.27537 17.5291 10ZM16.9573 7.12267C16.9829 7.09585 17.0082 7.06911 17.0332 7.04243C17.6866 6.34592 18.1228 5.73124 18.3465 5.23881C18.5795 4.72571 18.5163 4.50415 18.4766 4.43544C18.4369 4.36673 18.2767 4.20116 17.7158 4.14645C17.1775 4.09394 16.4271 4.16437 15.4972 4.38196C15.3693 4.41188 15.2388 4.44439 15.1059 4.47947C15.9003 5.21035 16.5365 6.11048 16.9573 7.12267ZM2.75775 11.8451C2.21984 12.4476 1.8531 12.9819 1.65428 13.4196C1.42122 13.9327 1.48449 14.1542 1.52416 14.2229C1.56383 14.2916 1.72408 14.4572 2.28496 14.5119C2.71184 14.5536 3.27213 14.5179 3.94953 14.3928C3.40268 13.6373 2.9932 12.7759 2.75775 11.8451Z" fill="url(#paint0_linear_361_44205)"/>
<path d="M5.77856 6.86328H8.50584V7.68146C8.50584 8.73583 7.65111 9.59055 6.59675 9.59055H5.77856V6.86328Z" fill="white"/>
<path d="M8.77856 7.68146V6.86328H14.2331V9.59055H10.6877C9.63329 9.59055 8.77856 8.73583 8.77856 7.68146Z" fill="white"/>
<path d="M8.77856 11.7724C8.77856 10.718 9.63329 9.86328 10.6877 9.86328H11.5058V13.9542H8.77856V11.7724Z" fill="white"/>
<defs>
<linearGradient id="paint0_linear_361_44205" x1="0.734985" y1="2.5" x2="15.406" y2="20.6244" gradientUnits="userSpaceOnUse">
<stop stop-color="#FF8A48"/>
<stop offset="1" stop-color="#FF4667"/>
</linearGradient>
</defs>
</svg>
