<svg width="104" height="58" viewBox="0 0 104 58" fill="none" xmlns="http://www.w3.org/2000/svg">
<g clip-path="url(#clip0_232_5408)">
<rect width="104" height="58" rx="4" fill="#F6F6F6"/>
<rect width="104" height="58" rx="4" stroke="#EBEBEB"/>
<mask id="mask0_232_5408" style="mask-type:luminance" maskUnits="userSpaceOnUse" x="0" y="0" width="104" height="58">
<rect width="104" height="58" rx="4" fill="white"/>
<rect width="104" height="58" rx="4" stroke="white"/>
</mask>
<g mask="url(#mask0_232_5408)">
<mask id="mask1_232_5408" style="mask-type:alpha" maskUnits="userSpaceOnUse" x="42" y="19" width="20" height="20">
<rect x="42" y="19" width="20" height="20" fill="#D9D9D9"/>
</mask>
<g mask="url(#mask1_232_5408)">
<path d="M46.5962 35.5833C46.2278 35.5833 45.9124 35.4521 45.65 35.1898C45.3877 34.9274 45.2565 34.612 45.2565 34.2436V23.7565C45.2565 23.388 45.3877 23.0726 45.65 22.8103C45.9124 22.5479 46.2278 22.4167 46.5962 22.4167H52.3048C52.4496 22.4167 52.575 22.4682 52.6809 22.5713C52.7868 22.6743 52.8398 22.802 52.8398 22.9543C52.8398 23.1066 52.7879 23.2356 52.684 23.3414C52.5802 23.4471 52.4516 23.5 52.2981 23.5H46.5962C46.5214 23.5 46.46 23.5241 46.4119 23.5721C46.3638 23.6202 46.3398 23.6817 46.3398 23.7565V34.2436C46.3398 34.3184 46.3638 34.3798 46.4119 34.4279C46.46 34.476 46.5214 34.5 46.5962 34.5H57.0833C57.1581 34.5 57.2196 34.476 57.2676 34.4279C57.3157 34.3798 57.3398 34.3184 57.3398 34.2436V28.535C57.3398 28.3902 57.3913 28.2648 57.4943 28.1589C57.5973 28.053 57.725 28 57.8773 28C58.0296 28 58.1586 28.0519 58.2644 28.1558C58.3702 28.2596 58.4231 28.3882 58.4231 28.5417V34.2436C58.4231 34.612 58.2919 34.9274 58.0295 35.1898C57.7671 35.4521 57.4518 35.5833 57.0833 35.5833H46.5962ZM56.1652 24.6795H55.2044C55.0502 24.6795 54.921 24.6276 54.8167 24.5237C54.7124 24.4198 54.6603 24.2911 54.6603 24.1376C54.6603 23.984 54.7124 23.8554 54.8167 23.7517C54.921 23.648 55.0502 23.5962 55.2044 23.5962H56.1652V22.6378C56.1652 22.4844 56.2173 22.3557 56.3217 22.2519C56.426 22.1481 56.5543 22.0962 56.7066 22.0962C56.8589 22.0962 56.9865 22.1481 57.0893 22.2519C57.1922 22.3557 57.2436 22.4844 57.2436 22.6378V23.5962H58.1976C58.3498 23.5962 58.4789 23.6477 58.5848 23.7507C58.6907 23.8538 58.7436 23.9814 58.7436 24.1337C58.7436 24.286 58.6917 24.4143 58.5879 24.5184C58.4841 24.6226 58.3554 24.6746 58.2019 24.6746H57.2436V25.6354C57.2436 25.7896 57.1917 25.9188 57.0878 26.0231C56.9839 26.1273 56.8552 26.1795 56.7017 26.1795C56.5523 26.1795 56.4255 26.1276 56.3214 26.0238C56.2172 25.9199 56.1652 25.7913 56.1652 25.6378V24.6795ZM51.0737 32.016L50.0417 30.7244C49.9741 30.6293 49.8889 30.5818 49.7861 30.5818C49.6833 30.5818 49.5981 30.632 49.5305 30.7324L48.3869 32.2521C48.2978 32.3661 48.285 32.4845 48.3486 32.6074C48.4122 32.7302 48.5075 32.7917 48.6347 32.7917H55.113C55.2444 32.7917 55.3401 32.7302 55.4002 32.6074C55.4603 32.4845 55.4498 32.3659 55.3686 32.2516L53.4231 29.6523C53.3555 29.5519 53.269 29.5016 53.1635 29.5016C53.058 29.5016 52.9712 29.5526 52.9033 29.6544L51.0737 32.016Z" fill="#ADADAD"/>
</g>
</g>
</g>
<rect x="0.5" y="0.5" width="103" height="57" rx="3.5" stroke="#EBEBEB"/>
<defs>
<clipPath id="clip0_232_5408">
<rect width="104" height="58" rx="4" fill="white"/>
</clipPath>
</defs>
</svg>
