<svg width="92" height="52" viewBox="0 0 92 52" fill="none" xmlns="http://www.w3.org/2000/svg">
<rect width="92" height="52" rx="3.60784" fill="#3D3D3D"/>
<mask id="mask0_2376_11762" style="mask-type:luminance" maskUnits="userSpaceOnUse" x="0" y="0" width="92" height="52">
<rect width="92" height="52" rx="3.60784" fill="white"/>
</mask>
<g mask="url(#mask0_2376_11762)">
<mask id="mask1_2376_11762" style="mask-type:alpha" maskUnits="userSpaceOnUse" x="38" y="18" width="16" height="16">
<rect x="38.4897" y="18.0408" width="15.0204" height="15.1923" fill="#D9D9D9"/>
</mask>
<g mask="url(#mask1_2376_11762)">
<path d="M41.9417 30.6364C41.665 30.6364 41.4281 30.5367 41.2311 30.3374C41.0341 30.1381 40.9355 29.8985 40.9355 29.6187V21.6525C40.9355 21.3727 41.0341 21.1331 41.2311 20.9338C41.4281 20.7345 41.665 20.6348 41.9417 20.6348H46.229C46.3378 20.6348 46.4319 20.674 46.5115 20.7522C46.591 20.8305 46.6308 20.9275 46.6308 21.0432C46.6308 21.1589 46.5918 21.2569 46.5138 21.3372C46.4358 21.4176 46.3392 21.4577 46.224 21.4577H41.9417C41.8855 21.4577 41.8394 21.476 41.8033 21.5125C41.7672 21.549 41.7491 21.5957 41.7491 21.6525V29.6187C41.7491 29.6755 41.7672 29.7222 41.8033 29.7587C41.8394 29.7952 41.8855 29.8135 41.9417 29.8135H49.8178C49.8739 29.8135 49.9201 29.7952 49.9562 29.7587C49.9923 29.7222 50.0103 29.6755 50.0103 29.6187V25.2824C50.0103 25.1723 50.049 25.0771 50.1264 24.9967C50.2038 24.9162 50.2997 24.876 50.4141 24.876C50.5284 24.876 50.6253 24.9154 50.7048 24.9943C50.7842 25.0731 50.8239 25.1709 50.8239 25.2874V29.6187C50.8239 29.8985 50.7254 30.1381 50.5284 30.3374C50.3313 30.5367 50.0945 30.6364 49.8178 30.6364H41.9417ZM49.1282 22.3537H48.4066C48.2909 22.3537 48.1938 22.3142 48.1155 22.2353C48.0372 22.1564 47.998 22.0586 47.998 21.942C47.998 21.8254 48.0372 21.7277 48.1155 21.6489C48.1938 21.5702 48.2909 21.5308 48.4066 21.5308H49.1282V20.8028C49.1282 20.6862 49.1674 20.5885 49.2457 20.5097C49.3241 20.4308 49.4205 20.3914 49.5348 20.3914C49.6492 20.3914 49.745 20.4308 49.8223 20.5097C49.8995 20.5885 49.9381 20.6862 49.9381 20.8028V21.5308H50.6546C50.7689 21.5308 50.8658 21.5699 50.9454 21.6482C51.0249 21.7264 51.0647 21.8234 51.0647 21.9391C51.0647 22.0548 51.0257 22.1522 50.9477 22.2313C50.8697 22.3104 50.7731 22.35 50.6579 22.35H49.9381V23.0798C49.9381 23.1969 49.8991 23.2951 49.8211 23.3743C49.7431 23.4535 49.6464 23.4931 49.5311 23.4931C49.4189 23.4931 49.3237 23.4536 49.2455 23.3748C49.1673 23.2959 49.1282 23.1982 49.1282 23.0816V22.3537ZM45.3044 27.9266L44.5294 26.9455C44.4786 26.8732 44.4146 26.8371 44.3374 26.8371C44.2602 26.8371 44.1962 26.8753 44.1454 26.9516L43.2865 28.106C43.2196 28.1925 43.2101 28.2825 43.2578 28.3758C43.3056 28.4691 43.3772 28.5158 43.4727 28.5158H48.338C48.4367 28.5158 48.5086 28.4691 48.5537 28.3758C48.5988 28.2825 48.5909 28.1924 48.5299 28.1055L47.0688 26.1311C47.0181 26.0548 46.9531 26.0166 46.8739 26.0166C46.7946 26.0166 46.7295 26.0553 46.6785 26.1326L45.3044 27.9266Z" fill="#707070"/>
</g>
</g>
</svg>
