<svg width="12" height="12" viewBox="0 0 12 12" fill="none" xmlns="http://www.w3.org/2000/svg">
<path d="M5.99762 11.0401C5.30548 11.0401 4.65211 10.9082 4.03749 10.6444C3.42288 10.3806 2.88815 10.0213 2.4333 9.56647C1.97846 9.11163 1.61915 8.57673 1.35538 7.96177C1.0916 7.34681 0.959717 6.69394 0.959717 6.00317C0.959717 5.30397 1.0916 4.64789 1.35538 4.03492C1.61915 3.42194 1.97846 2.88804 2.4333 2.43319C2.88815 1.97835 3.4234 1.61904 4.03907 1.35527C4.65474 1.09149 5.30837 0.959606 5.99994 0.959606C6.26495 0.959606 6.51961 0.97704 6.76392 1.01191C7.00822 1.04678 7.2465 1.10145 7.47874 1.17591V2.76342C7.47874 3.00509 7.39131 3.21198 7.21644 3.38408C7.04157 3.55617 6.83137 3.64222 6.58582 3.64222H5.41407V4.22103C5.41407 4.38161 5.35747 4.52057 5.24428 4.63793C5.13109 4.75528 4.99082 4.81396 4.82349 4.81396H4.24233V5.98571H7.18582C7.34639 5.98571 7.48536 6.04438 7.60272 6.16173C7.72007 6.27909 7.77874 6.41806 7.77874 6.57863V7.74331H8.27005C8.46172 7.74331 8.62225 7.80997 8.75164 7.94331C8.88103 8.07664 8.94496 8.23914 8.94342 8.43081C9.21733 8.09856 9.43228 7.72438 9.58825 7.30826C9.74423 6.89213 9.82222 6.45128 9.82222 5.98571C9.82222 5.89512 9.82041 5.79748 9.81679 5.69277C9.81317 5.58806 9.80302 5.49041 9.78635 5.39983H11.0097C11.0264 5.49041 11.0368 5.58806 11.041 5.69277C11.0452 5.79748 11.0472 5.89983 11.0472 5.99983C11.0472 6.69141 10.9153 7.34503 10.6516 7.96071C10.3878 8.57637 10.0273 9.11163 9.57012 9.56647C9.11292 10.0213 8.57835 10.3806 7.9664 10.6444C7.35445 10.9082 6.69819 11.0401 5.99762 11.0401ZM5.41407 9.76504V8.92211C5.25212 8.92211 5.11516 8.86689 5.0032 8.75646C4.89125 8.64602 4.83527 8.50831 4.83527 8.34331V7.75652L2.27147 5.20146C2.2501 5.33479 2.2303 5.46499 2.21207 5.59204C2.19384 5.71909 2.18473 5.85078 2.18473 5.98711C2.18473 6.94595 2.49433 7.78108 3.11353 8.49249C3.73273 9.2039 4.49958 9.62809 5.41407 9.76504ZM8.73527 4.60582C8.60787 4.60582 8.49894 4.56058 8.40847 4.47011C8.318 4.37963 8.27277 4.2707 8.27277 4.14331V2.54114C8.27277 2.42011 8.29916 2.31866 8.35194 2.23678C8.40473 2.1549 8.47834 2.10218 8.57277 2.07863H8.87277V1.48571C8.87277 1.21295 8.97342 0.975915 9.17472 0.774606C9.37603 0.573306 9.61306 0.472656 9.88582 0.472656C10.1605 0.472656 10.3992 0.573306 10.6019 0.774606C10.8046 0.975915 10.9059 1.21295 10.9059 1.48571V2.07863H11.2059C11.3003 2.10218 11.3739 2.1549 11.4267 2.23678C11.4795 2.31866 11.5059 2.42011 11.5059 2.54114V4.14331C11.5059 4.2707 11.4607 4.37963 11.3702 4.47011C11.2797 4.56058 11.1708 4.60582 11.0434 4.60582H8.73527ZM9.48527 2.07863H10.2934V1.41504C10.2934 1.29955 10.2546 1.20275 10.177 1.12463C10.0994 1.04651 10.0032 1.00744 9.88844 1.00744C9.7757 1.00744 9.68032 1.04651 9.6023 1.12463C9.52428 1.20275 9.48527 1.29955 9.48527 1.41504V2.07863Z" fill="#29CC5F"/>
</svg>
