<svg width="20" height="20" viewBox="0 0 20 20" fill="none" xmlns="http://www.w3.org/2000/svg">
<g clip-path="url(#clip0_1810_74683)">
<path d="M14.6667 0H5.33333C2.38781 0 0 2.38781 0 5.33333V14.6667C0 17.6122 2.38781 20 5.33333 20H14.6667C17.6122 20 20 17.6122 20 14.6667V5.33333C20 2.38781 17.6122 0 14.6667 0Z" fill="url(#paint0_linear_1810_74683)"/>
<g clip-path="url(#clip1_1810_74683)">
<path d="M6.38602 13.5045C6.31146 13.5045 6.16233 13.5045 6.08777 13.43C5.86408 13.2808 5.86408 13.0571 6.08777 12.908L8.02641 10.2983C8.17553 10.1492 8.39922 10.1492 8.62291 10.2237L10.3379 11.3422L13.395 8.21054C13.5441 8.06142 14.2897 7.31579 14.7371 8.13598V13.43C14.6625 13.5045 6.38602 13.5045 6.38602 13.5045ZM7.05709 6.2719C7.57903 6.2719 8.02641 6.71928 8.02641 7.24122C8.02641 7.76316 7.65359 8.21054 7.05709 8.21054C6.53515 8.21054 6.08777 7.76316 6.08777 7.24122C6.08777 6.71928 6.53515 6.2719 7.05709 6.2719ZM14.9608 4.78064H4.96932C4.37282 4.78064 4 5.15346 4 5.6754V13.9519C4 14.3993 4.37282 14.8467 4.96932 14.8467H15.0353C15.5573 14.8467 16.0047 14.3993 16.0047 13.9519V5.6754C15.9301 5.22802 15.5573 4.78064 14.9608 4.78064Z" fill="white"/>
</g>
</g>
<defs>
<linearGradient id="paint0_linear_1810_74683" x1="10" y1="0" x2="10" y2="20" gradientUnits="userSpaceOnUse">
<stop stop-color="#FFBE64"/>
<stop offset="1" stop-color="#FC9B36"/>
</linearGradient>
<clipPath id="clip0_1810_74683">
<rect width="20" height="20" fill="white"/>
</clipPath>
<clipPath id="clip1_1810_74683">
<rect width="12" height="12" fill="white" transform="translate(4 4)"/>
</clipPath>
</defs>
</svg>
