<svg width="20" height="20" viewBox="0 0 20 20" fill="none" xmlns="http://www.w3.org/2000/svg">
<path d="M14.6667 0H5.33333C2.38781 0 0 2.38781 0 5.33333V14.6667C0 17.6122 2.38781 20 5.33333 20H14.6667C17.6122 20 20 17.6122 20 14.6667V5.33333C20 2.38781 17.6122 0 14.6667 0Z" fill="url(#paint0_linear_1810_74647)"/>
<path d="M10.334 6.83325C10.334 5.45254 11.4533 4.33325 12.834 4.33325C14.2147 4.33325 15.334 5.45254 15.334 6.83325C15.334 8.21396 14.2147 9.33325 12.834 9.33325H10.334V6.83325Z" fill="#FFFFFD"/>
<path d="M9.66602 6.83325C9.66602 5.45254 8.54674 4.33325 7.16602 4.33325C5.78531 4.33325 4.66602 5.45254 4.66602 6.83325C4.66602 8.21396 5.78531 9.33325 7.16602 9.33325H9.66602V6.83325Z" fill="#FFFFFD"/>
<path opacity="0.5" d="M10.334 12.5C10.334 13.8807 11.4533 15 12.834 15C14.2147 15 15.334 13.8807 15.334 12.5C15.334 11.1193 14.2147 10 12.834 10H10.334V12.5Z" fill="#FFFFFD"/>
<path d="M9.66602 12.5C9.66602 13.8807 8.54674 15 7.16602 15C5.78531 15 4.66602 13.8807 4.66602 12.5C4.66602 11.1193 5.78531 10 7.16602 10H9.66602V12.5Z" fill="#FFFFFD"/>
<defs>
<linearGradient id="paint0_linear_1810_74647" x1="10" y1="0" x2="10" y2="20" gradientUnits="userSpaceOnUse">
<stop stop-color="#80DB32"/>
<stop offset="1" stop-color="#34C011"/>
</linearGradient>
</defs>
</svg>
