<svg width="20" height="20" viewBox="0 0 20 20" fill="none" xmlns="http://www.w3.org/2000/svg">
<g clip-path="url(#clip0_1810_74727)">
<path d="M14.6667 0H5.33333C2.38781 0 0 2.38781 0 5.33333V14.6667C0 17.6122 2.38781 20 5.33333 20H14.6667C17.6122 20 20 17.6122 20 14.6667V5.33333C20 2.38781 17.6122 0 14.6667 0Z" fill="url(#paint0_linear_1810_74727)"/>
<path d="M7.02896 7.97587C7.65183 7.4076 8.51934 7 9.5 7C11.3495 7 12.8848 8.45414 13.0514 10.3302C14.1462 10.4939 15 11.463 15 12.6529C15 13.9596 13.9704 15 12.7227 15H6.59961C5.17393 15 4 13.8116 4 12.3223C4 11.0401 4.87028 9.97827 6.02278 9.70909C6.1208 9.08124 6.5024 8.45627 7.02896 7.97587Z" fill="white"/>
<path fill-rule="evenodd" clip-rule="evenodd" d="M9.83496 6.01426C10.3346 6.05709 10.8106 6.195 11.2471 6.41167C11.3302 6.40397 11.4147 6.39998 11.5004 6.39998C12.8263 6.39998 13.8932 7.35224 14.0079 8.53618L14.0384 8.85095L14.3517 8.8939C15.0716 8.99259 15.6004 9.56878 15.6004 10.2396C15.6004 10.5525 15.4848 10.8452 15.2887 11.0783C15.464 11.2855 15.6125 11.5204 15.7277 11.7767C16.1399 11.3898 16.4004 10.8506 16.4004 10.2396C16.4004 9.23177 15.6896 8.41759 14.7606 8.16279C14.4673 6.68229 13.0962 5.59998 11.5004 5.59998C10.8837 5.59998 10.316 5.75999 9.83496 6.01426Z" fill="white"/>
</g>
<defs>
<linearGradient id="paint0_linear_1810_74727" x1="10" y1="0" x2="10" y2="20" gradientUnits="userSpaceOnUse">
<stop stop-color="#B3B3B8"/>
<stop offset="1" stop-color="#8E8E93"/>
</linearGradient>
<clipPath id="clip0_1810_74727">
<rect width="20" height="20" fill="white"/>
</clipPath>
</defs>
</svg>
