<svg width="20" height="20" viewBox="0 0 20 20" fill="none" xmlns="http://www.w3.org/2000/svg">
<path d="M14.6667 0H5.33333C2.38781 0 0 2.38781 0 5.33333V14.6667C0 17.6122 2.38781 20 5.33333 20H14.6667C17.6122 20 20 17.6122 20 14.6667V5.33333C20 2.38781 17.6122 0 14.6667 0Z" fill="url(#paint0_linear_1810_74665)"/>
<path d="M11.4 8.65833V5.56667C11.4 5.1 11.05 4.75 10.5833 4.75H5.56667C5.1 4.75 4.75 5.1 4.75 5.56667V10.5833C4.75 11.05 5.1 11.4 5.56667 11.4H8.6V8.65833H11.4ZM14.4333 8.65833H11.4V11.4H8.6V14.4917C8.6 14.9583 8.95 15.3083 9.41667 15.3083H14.4333C14.9 15.3083 15.25 14.9583 15.25 14.4917V9.41667C15.25 9.00833 14.9 8.65833 14.4333 8.65833Z" fill="white"/>
<defs>
<linearGradient id="paint0_linear_1810_74665" x1="10" y1="0" x2="10" y2="20" gradientUnits="userSpaceOnUse">
<stop stop-color="#49B0FF"/>
<stop offset="1" stop-color="#1694FF"/>
</linearGradient>
</defs>
</svg>
