<svg width="20" height="20" viewBox="0 0 20 20" fill="none" xmlns="http://www.w3.org/2000/svg">
<g clip-path="url(#clip0_1810_74707)">
<path d="M14.6667 0H5.33333C2.38781 0 0 2.38781 0 5.33333V14.6667C0 17.6122 2.38781 20 5.33333 20H14.6667C17.6122 20 20 17.6122 20 14.6667V5.33333C20 2.38781 17.6122 0 14.6667 0Z" fill="url(#paint0_linear_1810_74707)"/>
<path d="M12.4053 7.72504H14.9403L11.8203 4.4967V7.1617C11.8203 7.4867 12.0803 7.72504 12.4053 7.72504Z" fill="white"/>
<path d="M12.4054 8.52663C11.6471 8.52663 11.0187 7.8983 11.0187 7.13997V4.2583H6.20875C5.45042 4.2583 4.84375 4.88663 4.84375 5.64497V14.3766C4.84375 15.135 5.47208 15.7633 6.23042 15.7633H13.7921C14.5504 15.7633 15.1787 15.135 15.1787 14.3766V8.52663H12.4054ZM12.0588 13.25H7.94208C7.72542 13.25 7.53042 13.0766 7.53042 12.8383C7.53042 12.6216 7.70375 12.4266 7.94208 12.4266H12.0371C12.2538 12.4266 12.4487 12.6 12.4487 12.8383C12.4487 13.0766 12.2754 13.25 12.0588 13.25ZM12.0588 10.8233H7.94208C7.72542 10.8233 7.53042 10.65 7.53042 10.4116C7.53042 10.195 7.70375 9.99997 7.94208 9.99997H12.0371C12.2538 9.99997 12.4487 10.1733 12.4487 10.4116C12.4487 10.65 12.2754 10.8233 12.0588 10.8233Z" fill="white"/>
</g>
<defs>
<linearGradient id="paint0_linear_1810_74707" x1="10" y1="0" x2="10" y2="20" gradientUnits="userSpaceOnUse">
<stop stop-color="#49B0FF"/>
<stop offset="1" stop-color="#1694FF"/>
</linearGradient>
<clipPath id="clip0_1810_74707">
<rect width="20" height="20" fill="white"/>
</clipPath>
</defs>
</svg>
