<svg width="20" height="20" viewBox="0 0 20 20" fill="none" xmlns="http://www.w3.org/2000/svg">
<g clip-path="url(#clip0_2348_7815)">
<path d="M14.6667 0H5.33333C2.38781 0 0 2.38781 0 5.33333V14.6667C0 17.6122 2.38781 20 5.33333 20H14.6667C17.6122 20 20 17.6122 20 14.6667V5.33333C20 2.38781 17.6122 0 14.6667 0Z" fill="url(#paint0_linear_2348_7815)"/>
<path d="M15.0832 14.1885H4.90452C4.60237 14.1885 4.35764 14.4332 4.35764 14.7354C4.35764 15.0375 4.60237 15.2822 4.90452 15.2822H15.0832C15.3854 15.2822 15.6301 15.0375 15.6301 14.7354C15.6301 14.4346 15.3854 14.1885 15.0832 14.1885ZM4.76506 13.2861H15.1174C15.3717 13.2861 15.5781 13.0797 15.5781 12.8254V5.14043C15.5781 4.88613 15.3717 4.67969 15.1174 4.67969H4.76506C4.51077 4.67969 4.30432 4.88613 4.30432 5.14043V12.8254C4.30569 13.0797 4.51077 13.2861 4.76506 13.2861ZM7.7428 8.79219L7.33674 8.23711C7.26155 8.1332 7.25334 7.99512 7.3176 7.88438L7.67717 7.26094C7.74143 7.1502 7.86448 7.0873 7.99163 7.10098L8.67659 7.1748C8.81741 7.18984 8.95002 7.11328 9.00745 6.9834L9.28499 6.35313C9.33694 6.23555 9.45315 6.16035 9.5803 6.16035H10.3008C10.4293 6.16035 10.5455 6.23555 10.5961 6.35313L10.8737 6.9834C10.9311 7.11191 11.0651 7.18984 11.2045 7.1748L11.8895 7.10098C12.0166 7.0873 12.141 7.1502 12.2039 7.26094L12.5635 7.88438C12.6278 7.99512 12.6196 8.1332 12.5444 8.23711L12.1397 8.79219C12.0563 8.90566 12.0563 9.06016 12.1397 9.175L12.5457 9.73008C12.6209 9.83398 12.6291 9.97207 12.5649 10.0828L12.2053 10.7062C12.141 10.817 12.018 10.8799 11.8908 10.8662L11.2059 10.7924C11.0651 10.7773 10.9324 10.8539 10.875 10.9838L10.5975 11.6141C10.5455 11.7316 10.4293 11.8068 10.3022 11.8068H9.58303C9.45452 11.8068 9.33831 11.7316 9.28772 11.6141L9.01018 10.9838C8.95276 10.8553 8.81877 10.7773 8.67932 10.7924L7.99436 10.8662C7.86721 10.8799 7.7428 10.817 7.67991 10.7062L7.32034 10.0828C7.25608 9.97207 7.26428 9.83398 7.33948 9.73008L7.74553 9.175C7.8262 9.06016 7.8262 8.90566 7.7428 8.79219Z" fill="white"/>
<path d="M8.90894 8.99219C8.90894 9.26595 9.01769 9.5285 9.21127 9.72208C9.40485 9.91566 9.6674 10.0244 9.94116 10.0244C10.2149 10.0244 10.4775 9.91566 10.6711 9.72208C10.8646 9.5285 10.9734 9.26595 10.9734 8.99219C10.9734 8.71842 10.8646 8.45587 10.6711 8.26229C10.4775 8.06871 10.2149 7.95996 9.94116 7.95996C9.6674 7.95996 9.40485 8.06871 9.21127 8.26229C9.01769 8.45587 8.90894 8.71842 8.90894 8.99219Z" fill="white"/>
</g>
<defs>
<linearGradient id="paint0_linear_2348_7815" x1="10" y1="0" x2="10" y2="20" gradientUnits="userSpaceOnUse">
<stop stop-color="#80DB32"/>
<stop offset="1" stop-color="#34C011"/>
</linearGradient>
<clipPath id="clip0_2348_7815">
<rect width="20" height="20" fill="white"/>
</clipPath>
</defs>
</svg>
