<svg width="20" height="20" viewBox="0 0 20 20" fill="none" xmlns="http://www.w3.org/2000/svg">
<path d="M14.6667 0H5.33333C2.38781 0 0 2.38781 0 5.33333V14.6667C0 17.6122 2.38781 20 5.33333 20H14.6667C17.6122 20 20 17.6122 20 14.6667V5.33333C20 2.38781 17.6122 0 14.6667 0Z" fill="url(#paint0_linear_1810_74748)"/>
<path d="M14.8904 7.16582C15.3949 8.03125 15.6465 8.97598 15.6465 10C15.6465 11.024 15.3936 11.9701 14.8891 12.8342C14.3846 13.6996 13.6996 14.3846 12.8342 14.8891C11.9688 15.3949 11.024 15.6465 10 15.6465C8.97598 15.6465 8.02988 15.3936 7.16582 14.8891C6.30039 14.3846 5.61543 13.6996 5.11094 12.8342C4.60508 11.9701 4.35352 11.024 4.35352 10C4.35352 8.97598 4.60645 8.03125 5.11094 7.16582C5.61543 6.30039 6.30039 5.61543 7.16582 5.11094C8.02988 4.60508 8.97598 4.35352 10 4.35352C11.024 4.35352 11.9688 4.60645 12.8342 5.11094C13.6996 5.61543 14.3846 6.30039 14.8904 7.16582ZM13.1541 9.99863C13.1541 9.88926 13.1172 9.79629 13.0447 9.72383L10.8312 7.51035L10.2748 6.95391C10.201 6.88008 10.1094 6.84453 10 6.84453C9.89062 6.84453 9.79766 6.88145 9.7252 6.95391L9.16875 7.51035L6.95664 9.72383C6.88281 9.79766 6.84727 9.88926 6.84727 9.99863C6.84727 10.108 6.88418 10.201 6.95664 10.2734L7.51309 10.8299C7.58691 10.9037 7.67852 10.9393 7.78789 10.9393C7.89727 10.9393 7.99023 10.9023 8.0627 10.8299L9.21797 9.67461V13.0611C9.21797 13.1678 9.25625 13.2594 9.33418 13.3359C9.41211 13.4139 9.50371 13.4521 9.60898 13.4521H10.391C10.4963 13.4521 10.5893 13.4139 10.6658 13.3359C10.7438 13.258 10.782 13.1664 10.782 13.0611V9.67461L11.9373 10.8299C12.0152 10.9078 12.1068 10.9461 12.2121 10.9461C12.3174 10.9461 12.4104 10.9078 12.4869 10.8299L13.0434 10.2734C13.1172 10.1996 13.1541 10.108 13.1541 9.99863Z" fill="white"/>
<defs>
<linearGradient id="paint0_linear_1810_74748" x1="10" y1="0" x2="10" y2="20" gradientUnits="userSpaceOnUse">
<stop stop-color="#80DB32"/>
<stop offset="1" stop-color="#34C011"/>
</linearGradient>
</defs>
</svg>
