<svg width="172" height="160" viewBox="0 0 172 160" fill="none" xmlns="http://www.w3.org/2000/svg">
<g opacity="0.4">
<path opacity="0.0526316" d="M-49.974 156.548C-107.841 156.387 -130.474 121.948 -100.586 79.6571C-70.6979 37.3663 0.427615 3.18954 58.2948 3.35122C116.162 3.51291 138.795 37.9516 108.907 80.2425C79.0187 122.533 7.89316 156.71 -49.974 156.548Z" stroke="url(#paint0_linear_169_2151)" stroke-width="0.325399"/>
<path opacity="0.105263" d="M-51.4881 154.243C-107.622 154.087 -129.576 120.68 -100.584 79.657C-71.5916 38.6342 -2.59801 5.48148 53.5355 5.63831C109.669 5.79515 131.623 39.202 102.631 80.2248C73.639 121.248 4.64542 154.4 -51.4881 154.243Z" stroke="url(#paint1_linear_169_2151)" stroke-width="0.325399"/>
<path opacity="0.157895" d="M-53.009 151.939C-107.409 151.787 -128.684 119.412 -100.588 79.6569C-72.4922 39.9021 -5.6305 7.77341 48.7693 7.9254C103.169 8.0774 124.444 40.4524 96.3484 80.2071C68.2526 119.962 1.39085 152.091 -53.009 151.939Z" stroke="url(#paint2_linear_169_2151)" stroke-width="0.325399"/>
<path opacity="0.210526" d="M-54.5259 149.634C-107.192 149.487 -127.788 118.144 -100.588 79.657C-73.3888 41.1703 -8.65902 10.0656 44.0071 10.2127C96.6732 10.3599 117.269 41.703 90.0697 80.1897C62.87 118.676 -1.85981 149.781 -54.5259 149.634Z" stroke="url(#paint3_linear_169_2151)" stroke-width="0.325399"/>
<path opacity="0.263158" d="M-56.042 147.329C-106.974 147.187 -126.892 116.876 -100.588 79.6572C-74.2846 42.4385 -11.6867 12.3578 39.2458 12.5001C90.1782 12.6424 110.095 42.9536 83.7919 80.1723C57.4883 117.391 -5.10956 147.472 -56.042 147.329Z" stroke="url(#paint4_linear_169_2151)" stroke-width="0.325399"/>
<path opacity="0.315789" d="M-57.5561 145.025C-106.755 144.887 -125.993 115.608 -100.586 79.6573C-75.1783 43.7066 -14.7123 14.6499 34.4865 14.7874C83.6852 14.9249 102.923 44.2043 77.5161 80.1549C52.1087 116.106 -8.3573 145.162 -57.5561 145.025Z" stroke="url(#paint5_linear_169_2151)" stroke-width="0.325399"/>
<path opacity="0.368421" d="M-59.0701 142.72C-106.535 142.587 -125.094 114.34 -100.583 79.6572C-76.072 44.9746 -17.7379 16.9419 29.7272 17.0745C77.1922 17.2071 95.7515 45.4546 71.2403 80.1373C46.729 114.82 -11.605 142.853 -59.0701 142.72Z" stroke="url(#paint6_linear_169_2151)" stroke-width="0.325399"/>
<path opacity="0.421053" d="M-60.5901 140.415C-106.321 140.287 -124.202 113.071 -100.587 79.6568C-76.9716 46.2422 -20.7694 19.2336 24.962 19.3613C70.6934 19.4891 88.5737 46.7048 64.9586 80.1194C41.3435 113.534 -14.8587 140.543 -60.5901 140.415Z" stroke="url(#paint7_linear_169_2151)" stroke-width="0.325399"/>
<path opacity="0.473684" d="M-62.108 138.11C-106.106 137.987 -123.307 111.804 -100.588 79.657C-77.8693 47.5104 -23.799 21.5258 20.1987 21.6487C64.1965 21.7716 81.3978 47.9554 58.6789 80.102C35.96 112.249 -18.1103 138.233 -62.108 138.11Z" stroke="url(#paint8_linear_169_2151)" stroke-width="0.325399"/>
<path opacity="0.526316" d="M-63.624 135.805C-105.888 135.687 -122.41 110.535 -100.588 79.6566C-78.7649 48.7781 -26.8265 23.8174 15.4375 23.9355C57.7015 24.0536 74.2239 49.2055 52.4011 80.0841C30.5784 110.963 -21.36 135.923 -63.624 135.805Z" stroke="url(#paint9_linear_169_2151)" stroke-width="0.325399"/>
<path opacity="0.9" d="M-65.1391 133.501C-105.669 133.388 -121.513 109.268 -100.586 79.6572C-79.6596 50.0467 -29.8532 26.1101 10.6772 26.2234C51.2075 26.3366 67.051 50.4566 46.1244 80.0671C25.1978 109.678 -24.6087 133.614 -65.1391 133.501Z" stroke="url(#paint10_linear_169_2151)" stroke-width="0.325399"/>
<path opacity="0.8" d="M-66.6522 131.196C-105.449 131.088 -120.613 107.999 -100.583 79.6569C-80.5524 51.3144 -32.8778 28.4018 5.91881 28.5102C44.7155 28.6186 59.88 51.7068 39.8495 80.0493C19.8191 108.392 -27.8555 131.304 -66.6522 131.196Z" stroke="url(#paint11_linear_169_2151)" stroke-width="0.325399"/>
<path opacity="0.7" d="M-68.1701 128.892C-105.233 128.788 -119.719 106.732 -100.584 79.6572C-81.45 52.5828 -35.9074 30.6942 1.15559 30.7978C38.2186 30.9013 52.7041 52.9576 33.5698 80.0321C14.4355 107.107 -31.1071 128.995 -68.1701 128.892Z" stroke="url(#paint12_linear_169_2151)" stroke-width="0.325399"/>
<path opacity="0.6" d="M-69.69 126.586C-105.019 126.488 -118.826 105.463 -100.588 79.6569C-82.3496 53.8505 -38.9389 32.9859 -3.6096 33.0846C31.7197 33.1833 45.5263 54.2078 27.2881 80.0142C9.05 105.821 -34.3607 126.685 -69.69 126.586Z" stroke="url(#paint13_linear_169_2151)" stroke-width="0.325399"/>
<path opacity="0.5" d="M-71.2065 124.282C-104.802 124.188 -117.93 104.195 -100.588 79.6568C-83.2458 55.1184 -41.967 35.2779 -8.37135 35.3717C25.2242 35.4656 38.3519 55.4581 21.0099 79.9965C3.66791 104.535 -37.6109 124.375 -71.2065 124.282Z" stroke="url(#paint14_linear_169_2151)" stroke-width="0.325399"/>
<path opacity="0.4" d="M-72.7231 121.977C-104.585 121.888 -117.034 102.928 -100.588 79.6572C-84.142 56.3868 -44.995 37.5703 -13.1331 37.6593C18.7288 37.7483 31.1775 56.709 14.7316 79.9794C-1.7142 103.25 -40.8611 122.066 -72.7231 121.977Z" stroke="url(#paint15_linear_169_2151)" stroke-width="0.325399"/>
<path opacity="0.3" d="M-74.2352 119.672C-104.363 119.588 -116.133 101.659 -100.583 79.657C-85.0338 57.6547 -48.0187 39.8622 -17.8905 39.9464C12.2377 40.0306 24.0075 57.9594 8.45779 79.9617C-7.09189 101.964 -44.1069 119.757 -74.2352 119.672Z" stroke="url(#paint16_linear_169_2151)" stroke-width="0.325399"/>
<path opacity="0.2" d="M-75.7531 117.368C-104.148 117.288 -115.238 100.391 -100.585 79.6572C-85.9314 58.9229 -51.0483 42.1544 -22.6537 42.2337C5.74082 42.3131 16.8316 59.21 2.17808 79.9443C-12.4754 100.679 -47.3586 117.447 -75.7531 117.368Z" stroke="url(#paint17_linear_169_2151)" stroke-width="0.325399"/>
<path opacity="0.1" d="M-77.2716 115.063C-103.932 114.988 -114.344 99.1231 -100.587 79.6568C-86.8296 60.1906 -54.0783 44.4461 -27.4175 44.5206C-0.756589 44.5951 9.65525 60.4601 -4.10212 79.9264C-17.8595 99.3927 -50.6107 115.137 -77.2716 115.063Z" stroke="url(#paint18_linear_169_2151)" stroke-width="0.325399"/>
</g>
<defs>
<linearGradient id="paint0_linear_169_2151" x1="109.07" y1="80.2429" x2="-31.1355" y2="-18.844" gradientUnits="userSpaceOnUse">
<stop stop-color="#FF6565"/>
<stop offset="1" stop-color="#FF7272" stop-opacity="0"/>
</linearGradient>
<linearGradient id="paint1_linear_169_2151" x1="102.794" y1="80.2253" x2="-33.216" y2="-15.8968" gradientUnits="userSpaceOnUse">
<stop stop-color="#FF6565"/>
<stop offset="1" stop-color="#FF7272" stop-opacity="0"/>
</linearGradient>
<linearGradient id="paint2_linear_169_2151" x1="96.5111" y1="80.2076" x2="-35.3034" y2="-12.9495" gradientUnits="userSpaceOnUse">
<stop stop-color="#FF6565"/>
<stop offset="1" stop-color="#FF7272" stop-opacity="0"/>
</linearGradient>
<linearGradient id="paint3_linear_169_2151" x1="90.2324" y1="80.1902" x2="-37.3869" y2="-10.002" gradientUnits="userSpaceOnUse">
<stop stop-color="#FF6565"/>
<stop offset="1" stop-color="#FF7272" stop-opacity="0"/>
</linearGradient>
<linearGradient id="paint4_linear_169_2151" x1="83.9546" y1="80.1728" x2="-39.4695" y2="-7.05454" gradientUnits="userSpaceOnUse">
<stop stop-color="#FF6565"/>
<stop offset="1" stop-color="#FF7272" stop-opacity="0"/>
</linearGradient>
<linearGradient id="paint5_linear_169_2151" x1="77.6788" y1="80.1554" x2="-41.55" y2="-4.10704" gradientUnits="userSpaceOnUse">
<stop stop-color="#FF6565"/>
<stop offset="1" stop-color="#FF7272" stop-opacity="0"/>
</linearGradient>
<linearGradient id="paint6_linear_169_2151" x1="71.403" y1="80.1377" x2="-43.6306" y2="-1.15979" gradientUnits="userSpaceOnUse">
<stop stop-color="#FF6565"/>
<stop offset="1" stop-color="#FF7272" stop-opacity="0"/>
</linearGradient>
<linearGradient id="paint7_linear_169_2151" x1="65.1213" y1="80.1198" x2="-45.717" y2="1.78723" gradientUnits="userSpaceOnUse">
<stop stop-color="#FF6565"/>
<stop offset="1" stop-color="#FF7272" stop-opacity="0"/>
</linearGradient>
<linearGradient id="paint8_linear_169_2151" x1="58.8416" y1="80.1024" x2="-47.8015" y2="4.73469" gradientUnits="userSpaceOnUse">
<stop stop-color="#FF6565"/>
<stop offset="1" stop-color="#FF7272" stop-opacity="0"/>
</linearGradient>
<linearGradient id="paint9_linear_169_2151" x1="52.5638" y1="80.0845" x2="-49.8839" y2="7.68171" gradientUnits="userSpaceOnUse">
<stop stop-color="#FF6565"/>
<stop offset="1" stop-color="#FF7272" stop-opacity="0"/>
</linearGradient>
<linearGradient id="paint10_linear_169_2151" x1="46.2871" y1="80.0676" x2="-51.9655" y2="10.6297" gradientUnits="userSpaceOnUse">
<stop stop-color="#FF6565"/>
<stop offset="1" stop-color="#FF7272" stop-opacity="0"/>
</linearGradient>
<linearGradient id="paint11_linear_169_2151" x1="40.0122" y1="80.0497" x2="-54.0451" y2="13.5767" gradientUnits="userSpaceOnUse">
<stop stop-color="#FF6565"/>
<stop offset="1" stop-color="#FF7272" stop-opacity="0"/>
</linearGradient>
<linearGradient id="paint12_linear_169_2151" x1="33.7325" y1="80.0325" x2="-56.1296" y2="16.5244" gradientUnits="userSpaceOnUse">
<stop stop-color="#FF6565"/>
<stop offset="1" stop-color="#FF7272" stop-opacity="0"/>
</linearGradient>
<linearGradient id="paint13_linear_169_2151" x1="27.4508" y1="80.0146" x2="-58.216" y2="19.4714" gradientUnits="userSpaceOnUse">
<stop stop-color="#FF6565"/>
<stop offset="1" stop-color="#FF7272" stop-opacity="0"/>
</linearGradient>
<linearGradient id="paint14_linear_169_2151" x1="21.1726" y1="79.997" x2="-60.299" y2="22.4187" gradientUnits="userSpaceOnUse">
<stop stop-color="#FF6565"/>
<stop offset="1" stop-color="#FF7272" stop-opacity="0"/>
</linearGradient>
<linearGradient id="paint15_linear_169_2151" x1="14.8943" y1="79.9798" x2="-62.382" y2="25.3664" gradientUnits="userSpaceOnUse">
<stop stop-color="#FF6565"/>
<stop offset="1" stop-color="#FF7272" stop-opacity="0"/>
</linearGradient>
<linearGradient id="paint16_linear_169_2151" x1="8.62049" y1="79.9622" x2="-64.4606" y2="28.3136" gradientUnits="userSpaceOnUse">
<stop stop-color="#FF6565"/>
<stop offset="1" stop-color="#FF7272" stop-opacity="0"/>
</linearGradient>
<linearGradient id="paint17_linear_169_2151" x1="2.34078" y1="79.9448" x2="-66.5451" y2="31.2611" gradientUnits="userSpaceOnUse">
<stop stop-color="#FF6565"/>
<stop offset="1" stop-color="#FF7272" stop-opacity="0"/>
</linearGradient>
<linearGradient id="paint18_linear_169_2151" x1="-3.93943" y1="79.9269" x2="-68.6301" y2="34.2081" gradientUnits="userSpaceOnUse">
<stop stop-color="#FF6565"/>
<stop offset="1" stop-color="#FF7272" stop-opacity="0"/>
</linearGradient>
</defs>
</svg>
