<svg width="228" height="170" viewBox="0 0 228 170" fill="none" xmlns="http://www.w3.org/2000/svg">
<g opacity="0.4">
<path opacity="0.0526316" d="M286.874 92.3325C318.635 72.5208 338.327 50.7567 344.501 31.5901C350.676 12.4215 343.328 -4.12605 321.076 -13.5508C298.824 -22.9756 265.819 -23.5194 230.395 -16.7392C194.974 -9.95973 157.178 4.13634 125.417 23.9481C93.6565 43.7599 73.9644 65.5239 67.7901 84.6906C61.6151 103.859 68.9637 120.407 91.2158 129.831C113.468 139.256 146.472 139.8 181.897 133.02C217.317 126.24 255.114 112.144 286.874 92.3325Z" stroke="url(#paint0_linear_169_2130)" stroke-width="0.5"/>
<path opacity="0.105263" d="M287.898 89.1571C318.707 69.9388 337.809 48.8269 343.798 30.2348C349.788 11.6409 342.659 -4.40963 321.076 -13.5511C299.493 -22.6925 267.48 -23.2204 233.117 -16.6435C198.759 -10.0672 162.095 3.60645 131.285 22.8248C100.476 42.0431 81.3742 63.155 75.3849 81.7471C69.395 100.341 76.5236 116.392 98.1068 125.533C119.69 134.674 151.703 135.202 186.066 128.625C220.424 122.049 257.088 108.375 287.898 89.1571Z" stroke="url(#paint1_linear_169_2130)" stroke-width="0.5"/>
<path opacity="0.157895" d="M288.921 85.9822C318.779 67.3574 337.29 46.8976 343.095 28.8801C348.899 10.8607 341.991 -4.69272 321.077 -13.5508C300.162 -22.409 269.14 -22.9209 235.84 -16.5472C202.543 -10.1741 167.012 3.07707 137.154 21.7019C107.296 40.3268 88.7839 60.7866 82.9797 78.804C77.175 96.8234 84.0836 112.377 104.998 121.235C125.912 130.093 156.934 130.605 190.235 124.231C223.531 117.858 259.063 104.607 288.921 85.9822Z" stroke="url(#paint2_linear_169_2130)" stroke-width="0.5"/>
<path opacity="0.210526" d="M289.943 82.8068C318.85 64.7755 336.771 44.9678 342.39 27.5249C348.01 10.0801 341.321 -4.97629 321.076 -13.5511C300.831 -22.1259 270.8 -22.6218 238.561 -16.4514C206.326 -10.2816 171.927 2.5472 143.021 20.5786C114.114 38.61 96.1927 58.4176 90.5736 75.8605C84.9539 93.3053 91.6425 108.362 111.888 116.936C132.133 125.511 162.164 126.007 194.402 119.837C226.638 113.667 261.036 100.838 289.943 82.8068Z" stroke="url(#paint3_linear_169_2130)" stroke-width="0.5"/>
<path opacity="0.263158" d="M290.966 79.6319C318.921 62.194 336.253 43.0384 341.687 26.1701C347.121 9.29991 340.653 -5.25941 321.076 -13.5509C301.5 -21.8423 272.461 -22.3223 241.284 -16.3551C210.111 -10.3885 176.844 2.01778 148.889 19.4557C120.934 36.8936 103.602 56.0492 98.1685 72.9175C92.7339 89.7877 99.2025 104.347 118.779 112.639C138.355 120.93 167.395 121.41 198.571 115.443C229.745 109.476 263.011 97.0699 290.966 79.6319Z" stroke="url(#paint4_linear_169_2130)" stroke-width="0.5"/>
<path opacity="0.315789" d="M291.99 76.4565C318.993 59.6121 335.734 41.1086 340.983 24.8149C346.233 8.5193 339.984 -5.54298 321.077 -13.5511C302.169 -21.5592 274.121 -22.0233 244.006 -16.2593C213.895 -10.496 181.761 1.48791 154.757 18.3324C127.753 35.1768 111.012 53.6803 105.763 69.974C100.514 86.2696 106.762 100.332 125.67 108.34C144.577 116.348 172.626 116.812 202.74 111.048C232.852 105.285 264.986 93.301 291.99 76.4565Z" stroke="url(#paint5_linear_169_2130)" stroke-width="0.5"/>
<path opacity="0.368421" d="M293.012 73.2811C319.064 57.0301 335.215 39.1788 340.279 23.4597C345.343 7.73865 339.315 -5.82657 321.076 -13.5514C302.838 -21.2762 275.781 -21.7243 246.728 -16.1635C217.678 -10.6034 186.677 0.958019 160.624 17.209C134.572 33.46 118.421 51.3113 113.357 67.0305C108.293 82.7515 114.321 96.3167 132.56 104.042C150.798 111.766 177.855 112.214 206.908 106.654C235.958 101.094 266.959 89.5321 293.012 73.2811Z" stroke="url(#paint6_linear_169_2130)" stroke-width="0.5"/>
<path opacity="0.421053" d="M294.035 70.1062C319.136 54.4487 334.697 37.2495 339.576 22.105C344.455 6.9585 338.646 -6.10967 321.077 -13.5511C303.507 -20.9926 277.441 -21.4248 249.45 -16.0672C221.463 -10.7104 191.594 0.428617 166.492 16.0862C141.391 31.7437 125.831 48.9429 120.952 64.0874C116.073 79.2339 121.881 92.3021 139.451 99.7435C157.02 107.185 183.086 107.617 211.077 102.26C239.065 96.9028 268.934 85.7638 294.035 70.1062Z" stroke="url(#paint7_linear_169_2130)" stroke-width="0.5"/>
<path opacity="0.473684" d="M295.057 66.9313C319.207 51.8673 334.178 35.3202 338.871 20.7502C343.565 6.17835 337.977 -6.39276 321.076 -13.5509C304.176 -20.7091 279.101 -21.1252 252.172 -15.971C225.246 -10.8174 196.509 -0.100777 172.36 14.9633C148.21 30.0274 133.239 46.5745 128.546 61.1444C123.852 75.7163 129.44 88.2874 146.341 95.4455C163.241 102.604 188.316 103.02 215.245 97.8656C242.171 92.712 270.908 81.9954 295.057 66.9313Z" stroke="url(#paint8_linear_169_2130)" stroke-width="0.5"/>
<path opacity="0.526316" d="M296.081 63.7559C319.279 49.2853 333.659 33.3904 338.168 19.395C342.677 5.39772 337.308 -6.67633 321.076 -13.5512C304.845 -20.426 280.762 -20.8262 254.894 -15.8752C229.03 -10.9248 201.426 -0.63066 178.228 13.84C155.03 28.3106 140.649 44.2055 136.141 58.2009C131.632 72.1982 137 84.2722 153.232 91.1471C169.464 98.0219 193.547 98.4221 219.414 93.4711C245.278 88.5207 272.882 78.2266 296.081 63.7559Z" stroke="url(#paint9_linear_169_2130)" stroke-width="0.5"/>
<path opacity="0.578947" d="M297.104 60.581C319.351 46.7039 333.141 31.4611 337.464 18.0403C341.788 4.61757 336.64 -6.95943 321.077 -13.5509C305.514 -20.1424 282.422 -20.5267 257.617 -15.7789C232.814 -11.0317 206.343 -1.16005 184.096 12.7171C161.849 26.5943 148.059 41.8371 143.736 55.2579C139.412 68.6806 144.56 80.2576 160.123 86.8491C175.686 93.4406 198.778 93.8248 223.583 89.077C248.385 84.3299 274.857 74.4582 297.104 60.581Z" stroke="url(#paint10_linear_169_2130)" stroke-width="0.5"/>
<path opacity="0.631579" d="M298.126 57.4056C319.421 44.122 332.622 29.5312 336.76 16.6851C340.899 3.83695 335.97 -7.243 321.076 -13.5512C306.183 -19.8593 284.082 -20.2276 260.338 -15.6831C236.598 -11.1392 211.259 -1.68992 189.963 11.5938C168.668 24.8774 155.468 39.4682 151.329 52.3144C147.191 65.1625 152.119 76.2424 167.013 82.5506C181.907 88.8587 204.008 89.227 227.751 84.6825C251.492 80.1386 276.831 70.6893 298.126 57.4056Z" stroke="url(#paint11_linear_169_2130)" stroke-width="0.5"/>
<path opacity="0.684211" d="M299.149 54.2307C319.493 41.5405 332.103 27.6019 336.056 15.3303C340.01 3.0568 335.301 -7.52609 321.077 -13.5509C306.852 -19.5758 285.742 -19.9281 263.06 -15.5868C240.382 -11.2461 216.175 -2.21932 195.831 10.4709C175.487 23.1611 162.877 37.0997 158.924 49.3713C154.971 61.6448 159.679 72.2277 173.904 78.2526C188.129 84.2774 209.238 84.6298 231.92 80.2884C254.599 75.9478 278.805 66.921 299.149 54.2307Z" stroke="url(#paint12_linear_169_2130)" stroke-width="0.5"/>
<path opacity="0.736842" d="M300.172 51.0553C319.564 38.9586 331.584 25.6721 335.352 13.9751C339.121 2.27615 334.632 -7.80968 321.076 -13.5512C307.52 -19.2927 287.402 -19.6291 265.782 -15.491C244.165 -11.3536 221.091 -2.74921 201.699 9.34755C182.306 21.4443 170.286 34.7308 166.518 46.4278C162.749 58.1267 167.238 68.2126 180.794 73.9541C194.35 79.6956 214.468 80.032 236.088 75.8939C257.705 71.7565 280.779 63.1521 300.172 51.0553Z" stroke="url(#paint13_linear_169_2130)" stroke-width="0.5"/>
<path opacity="0.789474" d="M301.195 47.8802C319.636 36.3769 331.066 23.7425 334.649 12.6201C338.232 1.49577 333.963 -8.09301 321.076 -13.5512C308.19 -19.0094 289.063 -19.3298 268.504 -15.395C247.95 -11.4608 226.008 -3.27884 207.567 8.22446C189.125 19.7278 177.696 32.3621 174.113 43.4845C170.529 54.6089 174.798 64.1977 187.685 69.6559C200.572 75.114 219.699 75.4345 240.257 71.4996C260.812 67.5655 282.754 59.3835 301.195 47.8802Z" stroke="url(#paint14_linear_169_2130)" stroke-width="0.5"/>
<path opacity="0.842105" d="M302.217 44.7051C319.707 33.7952 330.546 21.813 333.944 11.2652C337.343 0.715386 333.294 -8.37634 321.076 -13.5512C308.858 -18.726 290.722 -19.0305 271.226 -15.2989C251.733 -11.568 230.924 -3.80848 213.434 7.10136C195.944 18.0112 185.105 29.9934 181.707 40.5413C178.308 51.091 182.357 60.1828 194.575 65.3576C206.793 70.5325 224.929 70.8369 244.425 67.1053C263.918 63.3744 284.727 55.6149 302.217 44.7051Z" stroke="url(#paint15_linear_169_2130)" stroke-width="0.5"/>
<path opacity="0.894737" d="M303.24 41.5302C319.779 31.2138 330.028 19.8837 333.241 9.91041C336.454 -0.0647598 332.625 -8.65943 321.076 -13.551C309.527 -18.4425 292.383 -18.731 273.948 -15.2026C255.517 -11.6749 235.841 -4.33787 219.302 5.9785C202.764 16.2949 192.515 27.625 189.302 37.5982C186.088 47.5734 189.917 56.1681 201.466 61.0596C213.015 65.9511 230.16 66.2397 248.594 62.7113C267.025 59.1836 286.702 51.8465 303.24 41.5302Z" stroke="url(#paint16_linear_169_2130)" stroke-width="0.5"/>
<path opacity="0.947368" d="M304.264 38.3545C319.851 28.6316 329.51 17.9536 332.537 8.55494C335.566 -0.845643 331.957 -8.94327 321.077 -13.5515C310.197 -18.1597 294.043 -18.4322 276.671 -15.1071C259.302 -11.7826 240.757 -4.868 225.17 4.85491C209.583 14.5778 199.924 25.2558 196.897 34.6545C193.868 44.0551 197.477 52.1527 208.357 56.7609C219.237 61.3691 235.391 61.6416 252.763 58.3165C270.132 54.9921 288.677 48.0774 304.264 38.3545Z" stroke="url(#paint17_linear_169_2130)" stroke-width="0.5"/>
<path d="M305.286 35.1799C319.922 26.0504 328.99 16.0245 331.833 7.20045C334.676 -1.62555 331.287 -9.22612 321.076 -13.551C310.865 -17.8758 295.703 -18.1324 279.392 -15.0106C263.085 -11.8894 245.673 -5.39715 231.037 3.7323C216.402 12.8618 207.333 22.8876 204.49 31.7117C201.647 40.5377 205.036 48.1383 215.247 52.4631C225.458 56.788 240.62 57.0446 256.931 53.9227C273.238 50.8015 290.65 44.3093 305.286 35.1799Z" stroke="url(#paint18_linear_169_2130)" stroke-width="0.5"/>
</g>
<defs>
<linearGradient id="paint0_linear_169_2130" x1="91.0036" y1="129.964" x2="177.618" y2="-74.534" gradientUnits="userSpaceOnUse">
<stop stop-color="#FF6565"/>
<stop offset="1" stop-color="#FF7272" stop-opacity="0"/>
</linearGradient>
<linearGradient id="paint1_linear_169_2130" x1="97.8947" y1="125.665" x2="181.917" y2="-72.7134" gradientUnits="userSpaceOnUse">
<stop stop-color="#FF6565"/>
<stop offset="1" stop-color="#FF7272" stop-opacity="0"/>
</linearGradient>
<linearGradient id="paint2_linear_169_2130" x1="104.786" y1="121.367" x2="186.216" y2="-70.8924" gradientUnits="userSpaceOnUse">
<stop stop-color="#FF6565"/>
<stop offset="1" stop-color="#FF7272" stop-opacity="0"/>
</linearGradient>
<linearGradient id="paint3_linear_169_2130" x1="111.676" y1="117.069" x2="190.515" y2="-69.0718" gradientUnits="userSpaceOnUse">
<stop stop-color="#FF6565"/>
<stop offset="1" stop-color="#FF7272" stop-opacity="0"/>
</linearGradient>
<linearGradient id="paint4_linear_169_2130" x1="118.567" y1="112.771" x2="194.814" y2="-67.2509" gradientUnits="userSpaceOnUse">
<stop stop-color="#FF6565"/>
<stop offset="1" stop-color="#FF7272" stop-opacity="0"/>
</linearGradient>
<linearGradient id="paint5_linear_169_2130" x1="125.458" y1="108.472" x2="199.113" y2="-65.4303" gradientUnits="userSpaceOnUse">
<stop stop-color="#FF6565"/>
<stop offset="1" stop-color="#FF7272" stop-opacity="0"/>
</linearGradient>
<linearGradient id="paint6_linear_169_2130" x1="132.348" y1="104.174" x2="203.412" y2="-63.6098" gradientUnits="userSpaceOnUse">
<stop stop-color="#FF6565"/>
<stop offset="1" stop-color="#FF7272" stop-opacity="0"/>
</linearGradient>
<linearGradient id="paint7_linear_169_2130" x1="139.239" y1="99.8759" x2="207.711" y2="-61.7888" gradientUnits="userSpaceOnUse">
<stop stop-color="#FF6565"/>
<stop offset="1" stop-color="#FF7272" stop-opacity="0"/>
</linearGradient>
<linearGradient id="paint8_linear_169_2130" x1="146.129" y1="95.5779" x2="212.009" y2="-59.9677" gradientUnits="userSpaceOnUse">
<stop stop-color="#FF6565"/>
<stop offset="1" stop-color="#FF7272" stop-opacity="0"/>
</linearGradient>
<linearGradient id="paint9_linear_169_2130" x1="153.02" y1="91.2794" x2="216.309" y2="-58.1472" gradientUnits="userSpaceOnUse">
<stop stop-color="#FF6565"/>
<stop offset="1" stop-color="#FF7272" stop-opacity="0"/>
</linearGradient>
<linearGradient id="paint10_linear_169_2130" x1="159.911" y1="86.9814" x2="220.608" y2="-56.3262" gradientUnits="userSpaceOnUse">
<stop stop-color="#FF6565"/>
<stop offset="1" stop-color="#FF7272" stop-opacity="0"/>
</linearGradient>
<linearGradient id="paint11_linear_169_2130" x1="166.801" y1="82.6829" x2="224.906" y2="-54.5056" gradientUnits="userSpaceOnUse">
<stop stop-color="#FF6565"/>
<stop offset="1" stop-color="#FF7272" stop-opacity="0"/>
</linearGradient>
<linearGradient id="paint12_linear_169_2130" x1="173.692" y1="78.3849" x2="229.206" y2="-52.6846" gradientUnits="userSpaceOnUse">
<stop stop-color="#FF6565"/>
<stop offset="1" stop-color="#FF7272" stop-opacity="0"/>
</linearGradient>
<linearGradient id="paint13_linear_169_2130" x1="180.582" y1="74.0864" x2="233.504" y2="-50.8641" gradientUnits="userSpaceOnUse">
<stop stop-color="#FF6565"/>
<stop offset="1" stop-color="#FF7272" stop-opacity="0"/>
</linearGradient>
<linearGradient id="paint14_linear_169_2130" x1="187.473" y1="69.7882" x2="237.803" y2="-49.0433" gradientUnits="userSpaceOnUse">
<stop stop-color="#FF6565"/>
<stop offset="1" stop-color="#FF7272" stop-opacity="0"/>
</linearGradient>
<linearGradient id="paint15_linear_169_2130" x1="194.363" y1="65.4899" x2="242.102" y2="-47.2225" gradientUnits="userSpaceOnUse">
<stop stop-color="#FF6565"/>
<stop offset="1" stop-color="#FF7272" stop-opacity="0"/>
</linearGradient>
<linearGradient id="paint16_linear_169_2130" x1="201.254" y1="61.1919" x2="246.401" y2="-45.4014" gradientUnits="userSpaceOnUse">
<stop stop-color="#FF6565"/>
<stop offset="1" stop-color="#FF7272" stop-opacity="0"/>
</linearGradient>
<linearGradient id="paint17_linear_169_2130" x1="208.145" y1="56.8932" x2="250.7" y2="-43.5812" gradientUnits="userSpaceOnUse">
<stop stop-color="#FF6565"/>
<stop offset="1" stop-color="#FF7272" stop-opacity="0"/>
</linearGradient>
<linearGradient id="paint18_linear_169_2130" x1="215.035" y1="52.5955" x2="254.999" y2="-41.7599" gradientUnits="userSpaceOnUse">
<stop stop-color="#FF6565"/>
<stop offset="1" stop-color="#FF7272" stop-opacity="0"/>
</linearGradient>
</defs>
</svg>
