<svg width="294" height="326" viewBox="0 0 294 326" fill="none" xmlns="http://www.w3.org/2000/svg">
<g opacity="0.6">
<path opacity="0.0526316" d="M546.867 178.095C607.576 140.226 645.225 98.6201 657.031 61.9711C668.837 25.3202 654.795 -6.34962 612.192 -24.3941C569.588 -42.4386 506.426 -43.4683 438.694 -30.5044C370.966 -17.5411 298.712 9.4081 238.004 47.2769C177.295 85.1457 139.646 126.751 127.84 163.4C116.033 200.051 130.076 231.721 172.679 249.766C215.283 267.81 278.445 268.84 346.177 255.876C413.905 242.913 486.159 215.963 546.867 178.095Z" stroke="url(#paint0_linear_1938_25424)" stroke-width="0.514894"/>
<path opacity="0.105263" d="M548.821 172.029C607.712 135.294 644.233 94.9337 655.686 59.3825C667.139 23.8293 653.517 -6.89093 612.191 -24.3941C570.866 -41.8974 509.598 -42.8966 443.894 -30.3209C378.194 -17.7459 308.105 8.39624 249.214 45.1312C190.323 81.8663 153.801 122.226 142.349 157.777C130.896 193.33 144.518 224.051 185.843 241.554C227.169 259.057 288.437 260.056 354.14 247.481C419.84 234.906 489.93 208.764 548.821 172.029Z" stroke="url(#paint1_linear_1938_25424)" stroke-width="0.514894"/>
<path opacity="0.157895" d="M550.776 165.963C607.849 130.362 643.243 91.2478 654.342 56.7943C665.441 22.3389 652.24 -7.43176 612.192 -24.3937C572.145 -41.3556 512.77 -42.3243 449.095 -30.137C385.424 -17.9503 317.498 7.38486 260.425 42.9861C203.351 78.5873 167.957 117.701 156.858 152.155C145.759 186.61 158.961 216.381 199.008 233.343C239.055 250.305 298.43 251.273 362.105 239.086C425.776 226.899 493.702 201.564 550.776 165.963Z" stroke="url(#paint2_linear_1938_25424)" stroke-width="0.514894"/>
<path opacity="0.210526" d="M552.73 159.896C607.985 125.429 642.252 87.5609 652.997 54.2052C663.743 20.8475 650.961 -7.97354 612.192 -24.3942C573.423 -40.8148 515.942 -41.7531 454.295 -29.9539C392.653 -18.1555 326.89 6.37252 271.635 40.8399C216.379 75.3074 182.113 113.175 171.367 146.531C160.621 179.889 173.403 208.71 212.172 225.131C250.942 241.551 308.423 242.489 370.069 230.69C431.711 218.892 497.474 194.364 552.73 159.896Z" stroke="url(#paint3_linear_1938_25424)" stroke-width="0.514894"/>
<path opacity="0.263158" d="M554.683 153.831C608.122 120.497 641.26 83.875 651.652 51.617C662.044 19.357 649.683 -8.51442 612.192 -24.3938C574.7 -40.2731 519.113 -41.1809 459.496 -29.77C399.882 -18.3599 336.283 5.3611 282.844 38.6948C229.406 72.0284 196.268 108.651 185.876 140.909C175.484 173.169 187.845 201.04 225.336 216.919C262.828 232.799 318.415 233.707 378.032 222.296C437.646 210.886 501.245 187.165 554.683 153.831Z" stroke="url(#paint4_linear_1938_25424)" stroke-width="0.514894"/>
<path opacity="0.315789" d="M556.638 147.764C608.259 115.565 640.27 80.1882 650.308 49.0279C660.347 17.8656 648.406 -9.0562 612.192 -24.3943C575.979 -39.7323 522.286 -40.6096 464.697 -29.587C407.111 -18.5652 345.676 4.34876 294.055 36.5486C242.435 68.7485 210.423 104.125 200.386 135.285C190.347 166.447 202.288 193.369 238.501 208.707C274.715 224.045 328.408 224.923 385.997 213.9C443.582 202.878 505.018 179.964 556.638 147.764Z" stroke="url(#paint5_linear_1938_25424)" stroke-width="0.514894"/>
<path opacity="0.368421" d="M558.592 141.698C608.395 110.632 639.279 76.5018 648.963 46.4392C658.648 16.3747 647.127 -9.59754 612.192 -24.3943C577.256 -39.1911 525.457 -40.0379 469.896 -29.4036C414.34 -18.77 355.068 3.33687 305.265 34.403C255.462 65.469 224.578 99.5996 214.894 129.662C205.209 159.727 216.729 185.699 251.665 200.496C286.6 215.292 338.4 216.139 393.96 205.505C449.517 194.871 508.789 172.764 558.592 141.698Z" stroke="url(#paint6_linear_1938_25424)" stroke-width="0.514894"/>
<path opacity="0.421053" d="M560.546 135.633C608.531 105.701 638.287 72.8159 647.618 43.8511C656.95 14.8842 645.849 -10.1384 612.192 -24.3939C578.534 -38.6493 528.628 -39.4656 475.097 -29.2196C421.569 -18.9744 364.46 2.32548 316.475 32.2578C268.49 62.1901 238.733 95.0748 229.403 124.04C220.071 153.006 231.172 178.029 264.829 192.285C298.487 206.54 348.393 207.356 401.924 197.11C455.452 186.865 512.561 165.565 560.546 135.633Z" stroke="url(#paint7_linear_1938_25424)" stroke-width="0.514894"/>
<path opacity="0.473684" d="M562.5 129.567C608.667 100.768 637.296 69.1295 646.273 41.2624C655.251 13.3933 644.571 -10.6797 612.192 -24.3939C579.812 -38.1081 531.8 -38.8939 480.297 -29.0362C428.797 -19.1792 373.853 1.31362 327.685 30.1121C281.517 58.9106 252.888 90.5495 243.911 118.417C234.934 146.286 245.614 170.359 277.993 184.073C310.373 197.787 358.385 198.573 409.888 188.715C461.387 178.858 516.332 158.365 562.5 129.567Z" stroke="url(#paint8_linear_1938_25424)" stroke-width="0.514894"/>
<path opacity="0.526316" d="M564.455 123.501C608.805 95.8362 636.306 65.4431 644.929 38.6738C653.553 11.9024 643.294 -11.221 612.192 -24.3939C581.091 -37.5668 534.972 -38.3221 485.498 -28.8527C436.027 -19.384 383.246 0.301756 338.896 27.9665C294.546 55.6312 267.044 86.0242 258.421 112.794C249.797 139.565 260.056 162.688 291.158 175.861C322.259 189.034 368.378 189.789 417.852 180.32C467.323 170.851 520.104 151.166 564.455 123.501Z" stroke="url(#paint9_linear_1938_25424)" stroke-width="0.514894"/>
<path opacity="0.578947" d="M566.408 117.435C608.941 90.9039 635.314 61.7568 643.584 36.0851C651.855 10.4115 642.016 -11.7623 612.192 -24.3939C582.368 -37.0255 538.144 -37.7504 490.698 -28.6693C443.256 -19.5888 392.638 -0.710112 350.106 25.8208C307.573 52.3517 281.199 81.4989 272.93 107.171C264.659 132.844 274.498 155.018 304.322 167.65C334.145 180.281 378.37 181.006 425.816 171.925C473.258 162.844 523.876 143.966 566.408 117.435Z" stroke="url(#paint10_linear_1938_25424)" stroke-width="0.514894"/>
<path opacity="0.631579" d="M568.362 111.368C609.077 85.9712 634.323 58.0699 642.239 33.496C650.156 8.92008 640.737 -12.3041 612.192 -24.3944C583.646 -36.4848 541.315 -37.1791 495.898 -28.4863C450.485 -19.7941 402.03 -1.72246 361.315 23.6747C320.601 49.0718 295.354 76.9731 287.438 101.547C279.521 126.123 288.94 147.347 317.486 159.437C346.031 171.528 388.362 172.222 433.78 163.529C479.193 154.837 527.647 136.765 568.362 111.368Z" stroke="url(#paint11_linear_1938_25424)" stroke-width="0.514894"/>
<path opacity="0.684211" d="M570.317 105.303C609.214 81.04 633.333 54.3845 640.896 30.9083C648.459 7.43015 639.46 -12.8445 612.193 -24.3935C584.925 -35.9425 544.488 -36.6064 501.099 -28.3018C457.714 -19.9979 411.424 -2.73335 372.527 21.53C333.629 45.7933 309.511 72.4488 301.948 95.925C294.385 119.403 303.384 139.678 330.651 151.227C357.919 162.776 398.356 163.44 441.744 155.135C485.129 146.831 531.42 129.567 570.317 105.303Z" stroke="url(#paint12_linear_1938_25424)" stroke-width="0.514894"/>
<path opacity="0.736842" d="M572.271 99.2368C609.351 76.1072 632.342 50.6976 639.551 28.3191C646.76 5.9387 638.182 -13.3863 612.192 -24.394C586.203 -35.4018 547.659 -36.0352 506.299 -28.1189C464.943 -20.2033 420.816 -3.74573 383.736 19.3838C346.657 42.5134 323.666 67.923 316.457 90.3015C309.247 112.682 317.826 132.007 343.815 143.015C369.805 154.022 408.348 154.656 449.708 146.739C491.064 138.824 535.191 122.366 572.271 99.2368Z" stroke="url(#paint13_linear_1938_25424)" stroke-width="0.514894"/>
<path opacity="0.789474" d="M574.225 93.1708C609.487 71.175 631.35 47.0113 638.206 25.7305C645.062 4.44779 636.904 -13.9276 612.192 -24.394C587.48 -34.8605 550.831 -35.4634 511.499 -27.9354C472.172 -20.4081 430.208 -4.75758 394.946 17.2382C359.684 39.234 337.821 63.3977 330.965 84.6784C324.109 105.961 332.267 124.337 356.979 134.803C381.691 145.269 418.34 145.872 457.672 138.344C496.999 130.817 538.963 115.167 574.225 93.1708Z" stroke="url(#paint14_linear_1938_25424)" stroke-width="0.514894"/>
<path opacity="0.842105" d="M576.179 87.1048C609.623 66.2428 630.359 43.3249 636.861 23.1419C643.363 2.95687 635.625 -14.4689 612.192 -24.3941C588.758 -34.3192 554.002 -34.8917 516.7 -27.7519C479.401 -20.6129 439.601 -5.76946 406.156 15.0925C372.712 35.9545 351.976 58.8724 345.474 79.0554C338.971 99.2404 346.709 116.666 370.143 126.591C393.576 136.517 428.333 137.089 465.635 129.949C502.934 122.81 542.734 107.967 576.179 87.1048Z" stroke="url(#paint15_linear_1938_25424)" stroke-width="0.514894"/>
</g>
<defs>
<linearGradient id="paint0_linear_1938_25424" x1="172.461" y1="249.902" x2="337.934" y2="-140.784" gradientUnits="userSpaceOnUse">
<stop stop-color="#FF6565"/>
<stop offset="1" stop-color="#FF7272" stop-opacity="0"/>
</linearGradient>
<linearGradient id="paint1_linear_1938_25424" x1="185.625" y1="241.69" x2="346.146" y2="-137.305" gradientUnits="userSpaceOnUse">
<stop stop-color="#FF6565"/>
<stop offset="1" stop-color="#FF7272" stop-opacity="0"/>
</linearGradient>
<linearGradient id="paint2_linear_1938_25424" x1="198.79" y1="233.479" x2="354.36" y2="-133.826" gradientUnits="userSpaceOnUse">
<stop stop-color="#FF6565"/>
<stop offset="1" stop-color="#FF7272" stop-opacity="0"/>
</linearGradient>
<linearGradient id="paint3_linear_1938_25424" x1="211.954" y1="225.267" x2="362.573" y2="-130.348" gradientUnits="userSpaceOnUse">
<stop stop-color="#FF6565"/>
<stop offset="1" stop-color="#FF7272" stop-opacity="0"/>
</linearGradient>
<linearGradient id="paint4_linear_1938_25424" x1="225.118" y1="217.056" x2="370.786" y2="-126.869" gradientUnits="userSpaceOnUse">
<stop stop-color="#FF6565"/>
<stop offset="1" stop-color="#FF7272" stop-opacity="0"/>
</linearGradient>
<linearGradient id="paint5_linear_1938_25424" x1="238.283" y1="208.844" x2="378.999" y2="-123.391" gradientUnits="userSpaceOnUse">
<stop stop-color="#FF6565"/>
<stop offset="1" stop-color="#FF7272" stop-opacity="0"/>
</linearGradient>
<linearGradient id="paint6_linear_1938_25424" x1="251.446" y1="200.632" x2="387.212" y2="-119.913" gradientUnits="userSpaceOnUse">
<stop stop-color="#FF6565"/>
<stop offset="1" stop-color="#FF7272" stop-opacity="0"/>
</linearGradient>
<linearGradient id="paint7_linear_1938_25424" x1="264.611" y1="192.421" x2="395.424" y2="-116.434" gradientUnits="userSpaceOnUse">
<stop stop-color="#FF6565"/>
<stop offset="1" stop-color="#FF7272" stop-opacity="0"/>
</linearGradient>
<linearGradient id="paint8_linear_1938_25424" x1="277.775" y1="184.209" x2="403.637" y2="-112.955" gradientUnits="userSpaceOnUse">
<stop stop-color="#FF6565"/>
<stop offset="1" stop-color="#FF7272" stop-opacity="0"/>
</linearGradient>
<linearGradient id="paint9_linear_1938_25424" x1="290.94" y1="175.997" x2="411.851" y2="-109.476" gradientUnits="userSpaceOnUse">
<stop stop-color="#FF6565"/>
<stop offset="1" stop-color="#FF7272" stop-opacity="0"/>
</linearGradient>
<linearGradient id="paint10_linear_1938_25424" x1="304.103" y1="167.786" x2="420.063" y2="-105.998" gradientUnits="userSpaceOnUse">
<stop stop-color="#FF6565"/>
<stop offset="1" stop-color="#FF7272" stop-opacity="0"/>
</linearGradient>
<linearGradient id="paint11_linear_1938_25424" x1="317.267" y1="159.574" x2="428.276" y2="-102.52" gradientUnits="userSpaceOnUse">
<stop stop-color="#FF6565"/>
<stop offset="1" stop-color="#FF7272" stop-opacity="0"/>
</linearGradient>
<linearGradient id="paint12_linear_1938_25424" x1="330.433" y1="151.363" x2="436.49" y2="-99.0404" gradientUnits="userSpaceOnUse">
<stop stop-color="#FF6565"/>
<stop offset="1" stop-color="#FF7272" stop-opacity="0"/>
</linearGradient>
<linearGradient id="paint13_linear_1938_25424" x1="343.597" y1="143.151" x2="444.703" y2="-95.5624" gradientUnits="userSpaceOnUse">
<stop stop-color="#FF6565"/>
<stop offset="1" stop-color="#FF7272" stop-opacity="0"/>
</linearGradient>
<linearGradient id="paint14_linear_1938_25424" x1="356.761" y1="134.939" x2="452.915" y2="-92.0838" gradientUnits="userSpaceOnUse">
<stop stop-color="#FF6565"/>
<stop offset="1" stop-color="#FF7272" stop-opacity="0"/>
</linearGradient>
<linearGradient id="paint15_linear_1938_25424" x1="369.925" y1="126.728" x2="461.128" y2="-88.6053" gradientUnits="userSpaceOnUse">
<stop stop-color="#FF6565"/>
<stop offset="1" stop-color="#FF7272" stop-opacity="0"/>
</linearGradient>
</defs>
</svg>
