<svg width="303" height="290" viewBox="0 0 303 290" fill="none" xmlns="http://www.w3.org/2000/svg">
<g opacity="0.6">
<path opacity="0.0526316" d="M150.2 192.406C110.085 242.227 90.5395 288.418 91.3497 322.823C92.1599 357.23 113.323 379.819 154.562 382.522C195.801 385.225 249.395 367.536 302.754 336.679C356.109 305.824 409.178 261.83 449.292 212.009C489.407 162.189 508.952 115.997 508.142 81.5926C507.332 47.1853 486.169 24.5961 444.93 21.8932C403.691 19.1902 350.097 36.8795 296.738 67.7364C243.383 98.591 190.314 142.585 150.2 192.406Z" stroke="url(#paint0_linear_1938_25402)" stroke-width="0.653268"/>
<path opacity="0.105263" d="M150.334 198.103C111.421 246.432 92.4607 291.239 93.2467 324.613C94.0326 357.99 114.562 379.901 154.562 382.522C194.563 385.144 246.549 367.986 298.309 338.054C350.065 308.124 401.545 265.448 440.458 217.119C479.371 168.79 498.331 123.982 497.545 90.6084C496.759 57.232 476.23 35.3211 436.229 32.6993C396.229 30.0775 344.243 47.2356 292.482 77.1679C240.726 107.098 189.247 149.774 150.334 198.103Z" stroke="url(#paint1_linear_1938_25402)" stroke-width="0.653268"/>
<path opacity="0.157895" d="M150.468 203.8C112.756 250.637 94.3818 294.061 95.1434 326.404C95.9052 358.749 115.8 379.982 154.562 382.522C193.324 385.063 243.702 368.436 293.864 339.428C344.021 310.423 393.911 269.065 431.623 222.228C469.334 175.391 487.709 131.967 486.947 99.6242C486.185 67.2787 466.291 46.0461 427.529 43.5055C388.766 40.9649 338.388 57.5916 288.227 86.5994C238.069 115.605 188.18 156.963 150.468 203.8Z" stroke="url(#paint2_linear_1938_25402)" stroke-width="0.653268"/>
<path opacity="0.210526" d="M150.602 209.497C114.092 254.842 96.3029 296.882 97.0402 328.194C97.7777 359.509 117.038 380.063 154.562 382.522C192.086 384.982 240.856 368.886 289.418 340.803C337.977 312.722 386.277 272.682 422.788 227.337C459.298 181.992 477.087 139.952 476.35 108.64C475.612 77.3255 456.352 56.771 418.828 54.3116C381.304 51.8522 332.534 67.9476 283.971 96.0308C235.413 124.112 187.112 164.152 150.602 209.497Z" stroke="url(#paint3_linear_1938_25402)" stroke-width="0.653268"/>
<path opacity="0.263158" d="M150.736 215.194C115.427 259.047 98.2238 299.703 98.9369 329.984C99.65 360.268 118.276 380.144 154.562 382.522C190.847 384.9 238.009 369.336 284.973 342.178C331.933 315.021 378.644 276.299 413.953 232.446C449.262 188.593 466.465 147.936 465.752 117.655C465.039 87.3717 446.412 67.4955 410.127 65.1172C373.842 62.739 326.68 78.3032 279.716 105.462C232.756 132.618 186.045 171.341 150.736 215.194Z" stroke="url(#paint4_linear_1938_25402)" stroke-width="0.653268"/>
<path opacity="0.315789" d="M150.87 220.891C116.762 263.252 100.145 302.525 100.834 331.775C101.523 361.028 119.515 380.226 154.562 382.523C189.609 384.82 235.163 369.787 280.528 343.553C325.889 317.321 371.01 279.916 405.118 237.555C439.226 195.194 455.843 155.922 455.154 126.672C454.465 97.4189 436.473 78.221 401.426 75.9239C366.379 73.6268 320.825 88.6597 275.46 114.894C230.099 141.125 184.978 178.53 150.87 220.891Z" stroke="url(#paint5_linear_1938_25402)" stroke-width="0.653268"/>
<path opacity="0.368421" d="M151.004 226.588C118.098 267.457 102.066 305.346 102.73 333.565C103.395 361.787 120.753 380.306 154.562 382.522C188.37 384.738 232.316 370.237 276.082 344.927C319.845 319.62 363.376 283.533 396.283 242.664C429.189 201.795 445.221 163.906 444.557 135.687C443.892 107.465 426.534 88.9454 392.725 86.7295C358.917 84.5136 314.971 99.0152 271.205 124.325C227.442 149.632 183.911 185.719 151.004 226.588Z" stroke="url(#paint6_linear_1938_25402)" stroke-width="0.653268"/>
<path opacity="0.421053" d="M151.138 232.285C119.433 271.662 103.987 308.168 104.627 335.356C105.267 362.547 121.991 380.388 154.562 382.523C187.132 384.658 229.47 370.687 271.637 346.302C313.801 321.92 355.743 287.151 387.448 247.774C419.153 208.397 434.599 171.891 433.959 144.703C433.319 117.512 416.595 99.6709 384.025 97.5361C351.454 95.4014 309.117 109.372 266.949 133.757C224.786 158.139 182.843 192.908 151.138 232.285Z" stroke="url(#paint7_linear_1938_25402)" stroke-width="0.653268"/>
<path opacity="0.473684" d="M151.272 237.982C120.768 275.867 105.908 310.989 106.524 337.146C107.14 363.306 123.23 380.469 154.561 382.523C185.893 384.576 226.623 371.137 267.192 347.677C307.757 324.219 348.109 290.767 378.613 252.883C409.117 214.998 423.977 179.876 423.361 153.718C422.745 127.559 406.656 110.395 375.324 108.342C343.992 106.288 303.262 119.727 262.693 143.188C222.129 166.646 181.776 200.097 151.272 237.982Z" stroke="url(#paint8_linear_1938_25402)" stroke-width="0.653268"/>
<path opacity="0.526316" d="M151.408 243.679C122.105 280.072 107.83 313.81 108.422 338.936C109.014 364.065 124.469 380.55 154.563 382.523C184.656 384.495 223.778 371.587 262.748 349.051C301.714 326.518 340.477 294.385 369.779 257.992C399.082 221.599 413.357 187.86 412.765 162.734C412.173 137.605 396.718 121.12 366.624 119.148C336.531 117.175 297.409 130.083 258.439 152.619C219.473 175.153 180.71 207.286 151.408 243.679Z" stroke="url(#paint9_linear_1938_25402)" stroke-width="0.653268"/>
<path opacity="0.578947" d="M151.542 249.376C123.44 284.277 109.751 316.632 110.319 340.727C110.886 364.825 125.707 380.631 154.563 382.523C183.418 384.414 220.931 372.037 258.303 350.426C295.67 328.817 332.843 298.002 360.944 263.101C389.045 228.2 402.735 195.845 402.167 171.75C401.6 147.652 386.779 131.845 357.923 129.954C329.068 128.063 291.555 140.439 254.183 162.051C216.816 183.66 179.643 214.475 151.542 249.376Z" stroke="url(#paint10_linear_1938_25402)" stroke-width="0.653268"/>
<path opacity="0.631579" d="M151.676 255.073C124.776 288.482 111.672 319.453 112.215 342.517C112.759 365.584 126.946 380.713 154.562 382.523C182.179 384.333 218.085 372.488 253.857 351.801C289.625 331.117 325.209 301.619 352.109 268.21C379.009 234.801 392.113 203.83 391.57 180.766C391.026 157.699 376.839 142.57 349.223 140.76C321.606 138.95 285.7 150.795 249.928 171.482C214.16 192.166 178.576 221.664 151.676 255.073Z" stroke="url(#paint11_linear_1938_25402)" stroke-width="0.653268"/>
<path opacity="0.684211" d="M151.81 260.77C126.111 292.686 113.593 322.274 114.112 344.307C114.631 366.343 128.184 380.793 154.562 382.522C180.941 384.251 215.238 372.937 249.412 353.175C283.581 333.415 317.576 305.236 343.274 273.319C368.973 241.402 381.491 211.814 380.972 189.781C380.453 167.745 366.9 153.295 340.522 151.566C314.143 149.837 279.846 161.151 245.672 180.913C211.503 200.673 177.508 228.853 151.81 260.77Z" stroke="url(#paint12_linear_1938_25402)" stroke-width="0.653268"/>
<path opacity="0.736842" d="M151.944 266.467C127.447 296.891 115.514 325.095 116.009 346.098C116.504 367.103 129.422 380.875 154.562 382.523C179.702 384.17 212.392 373.388 244.967 354.55C277.537 335.715 309.942 308.853 334.439 278.428C358.937 248.003 370.869 219.799 370.374 198.797C369.88 177.792 356.961 164.02 331.821 162.372C306.681 160.724 273.992 171.507 241.417 190.345C208.846 209.18 176.441 236.042 151.944 266.467Z" stroke="url(#paint13_linear_1938_25402)" stroke-width="0.653268"/>
<path opacity="0.789474" d="M152.078 272.164C128.782 301.097 117.435 327.917 117.906 347.888C118.376 367.862 130.66 380.956 154.562 382.523C178.464 384.089 209.545 373.838 240.521 355.925C271.493 338.014 302.309 312.47 325.604 283.537C348.9 254.604 360.247 227.784 359.777 207.813C359.306 187.839 347.022 174.745 323.12 173.178C299.219 171.612 268.137 181.863 237.161 199.776C206.189 217.687 175.374 243.231 152.078 272.164Z" stroke="url(#paint14_linear_1938_25402)" stroke-width="0.653268"/>
<path opacity="0.8" d="M152.212 277.861C130.117 305.302 119.356 330.738 119.802 349.679C120.249 368.622 131.899 381.037 154.562 382.523C177.225 384.008 206.699 374.288 236.076 357.299C265.449 340.313 294.675 316.087 316.77 288.646C338.864 261.205 349.625 235.769 349.179 216.828C348.733 197.885 337.083 185.47 314.419 183.984C291.756 182.499 262.283 192.219 232.906 209.207C203.532 226.194 174.307 250.42 152.212 277.861Z" stroke="url(#paint15_linear_1938_25402)" stroke-width="0.653268"/>
<path opacity="0.6" d="M152.346 283.557C131.453 309.506 121.277 333.559 121.699 351.468C122.121 369.381 133.137 381.118 154.562 382.522C175.987 383.927 203.852 374.738 231.631 358.674C259.405 342.612 287.041 319.704 307.935 293.755C328.828 267.806 339.003 243.753 338.582 225.844C338.16 207.932 327.144 196.194 305.719 194.79C284.294 193.386 256.428 202.575 228.65 218.638C200.876 234.7 173.239 257.608 152.346 283.557Z" stroke="url(#paint16_linear_1938_25402)" stroke-width="0.653268"/>
<path opacity="0.4" d="M152.48 289.255C132.788 313.712 123.199 336.381 123.596 353.259C123.994 370.141 134.376 381.2 154.562 382.523C174.749 383.846 201.006 375.188 227.186 360.049C253.361 344.912 279.408 323.322 299.1 298.865C318.792 274.408 328.382 251.739 327.984 234.86C327.587 217.979 317.205 206.92 297.018 205.597C276.832 204.273 250.574 212.931 224.395 228.07C198.219 243.207 172.172 264.798 152.48 289.255Z" stroke="url(#paint17_linear_1938_25402)" stroke-width="0.653268"/>
<path opacity="0.2" d="M152.615 294.951C134.124 317.916 125.12 339.202 125.493 355.049C125.866 370.9 135.614 381.281 154.562 382.523C173.51 383.764 198.16 375.638 222.74 361.423C247.317 347.211 271.774 326.938 290.265 303.973C308.756 281.008 317.76 259.723 317.387 243.875C317.013 228.025 307.266 217.644 288.317 216.402C269.369 215.16 244.72 223.287 220.139 237.501C195.562 251.714 171.105 271.986 152.615 294.951Z" stroke="url(#paint18_linear_1938_25402)" stroke-width="0.653268"/>
</g>
<defs>
<linearGradient id="paint0_linear_1938_25402" x1="445.135" y1="21.6388" x2="420.322" y2="400.209" gradientUnits="userSpaceOnUse">
<stop stop-color="#FF6565"/>
<stop offset="1" stop-color="#FF7272" stop-opacity="0"/>
</linearGradient>
<linearGradient id="paint1_linear_1938_25402" x1="436.434" y1="32.4449" x2="412.364" y2="399.687" gradientUnits="userSpaceOnUse">
<stop stop-color="#FF6565"/>
<stop offset="1" stop-color="#FF7272" stop-opacity="0"/>
</linearGradient>
<linearGradient id="paint2_linear_1938_25402" x1="427.733" y1="43.251" x2="404.406" y2="399.166" gradientUnits="userSpaceOnUse">
<stop stop-color="#FF6565"/>
<stop offset="1" stop-color="#FF7272" stop-opacity="0"/>
</linearGradient>
<linearGradient id="paint3_linear_1938_25402" x1="419.033" y1="54.0572" x2="396.447" y2="398.644" gradientUnits="userSpaceOnUse">
<stop stop-color="#FF6565"/>
<stop offset="1" stop-color="#FF7272" stop-opacity="0"/>
</linearGradient>
<linearGradient id="paint4_linear_1938_25402" x1="410.332" y1="64.8628" x2="388.489" y2="398.122" gradientUnits="userSpaceOnUse">
<stop stop-color="#FF6565"/>
<stop offset="1" stop-color="#FF7272" stop-opacity="0"/>
</linearGradient>
<linearGradient id="paint5_linear_1938_25402" x1="401.631" y1="75.6694" x2="380.53" y2="397.601" gradientUnits="userSpaceOnUse">
<stop stop-color="#FF6565"/>
<stop offset="1" stop-color="#FF7272" stop-opacity="0"/>
</linearGradient>
<linearGradient id="paint6_linear_1938_25402" x1="392.93" y1="86.4751" x2="372.572" y2="397.079" gradientUnits="userSpaceOnUse">
<stop stop-color="#FF6565"/>
<stop offset="1" stop-color="#FF7272" stop-opacity="0"/>
</linearGradient>
<linearGradient id="paint7_linear_1938_25402" x1="384.229" y1="97.2817" x2="364.614" y2="396.558" gradientUnits="userSpaceOnUse">
<stop stop-color="#FF6565"/>
<stop offset="1" stop-color="#FF7272" stop-opacity="0"/>
</linearGradient>
<linearGradient id="paint8_linear_1938_25402" x1="375.529" y1="108.087" x2="356.655" y2="396.036" gradientUnits="userSpaceOnUse">
<stop stop-color="#FF6565"/>
<stop offset="1" stop-color="#FF7272" stop-opacity="0"/>
</linearGradient>
<linearGradient id="paint9_linear_1938_25402" x1="366.829" y1="118.894" x2="348.698" y2="395.515" gradientUnits="userSpaceOnUse">
<stop stop-color="#FF6565"/>
<stop offset="1" stop-color="#FF7272" stop-opacity="0"/>
</linearGradient>
<linearGradient id="paint10_linear_1938_25402" x1="358.128" y1="129.7" x2="340.74" y2="394.993" gradientUnits="userSpaceOnUse">
<stop stop-color="#FF6565"/>
<stop offset="1" stop-color="#FF7272" stop-opacity="0"/>
</linearGradient>
<linearGradient id="paint11_linear_1938_25402" x1="349.427" y1="140.506" x2="332.782" y2="394.472" gradientUnits="userSpaceOnUse">
<stop stop-color="#FF6565"/>
<stop offset="1" stop-color="#FF7272" stop-opacity="0"/>
</linearGradient>
<linearGradient id="paint12_linear_1938_25402" x1="340.727" y1="151.311" x2="324.823" y2="393.95" gradientUnits="userSpaceOnUse">
<stop stop-color="#FF6565"/>
<stop offset="1" stop-color="#FF7272" stop-opacity="0"/>
</linearGradient>
<linearGradient id="paint13_linear_1938_25402" x1="332.026" y1="162.118" x2="316.865" y2="393.428" gradientUnits="userSpaceOnUse">
<stop stop-color="#FF6565"/>
<stop offset="1" stop-color="#FF7272" stop-opacity="0"/>
</linearGradient>
<linearGradient id="paint14_linear_1938_25402" x1="323.325" y1="172.924" x2="308.907" y2="392.907" gradientUnits="userSpaceOnUse">
<stop stop-color="#FF6565"/>
<stop offset="1" stop-color="#FF7272" stop-opacity="0"/>
</linearGradient>
<linearGradient id="paint15_linear_1938_25402" x1="314.624" y1="183.73" x2="300.948" y2="392.385" gradientUnits="userSpaceOnUse">
<stop stop-color="#FF6565"/>
<stop offset="1" stop-color="#FF7272" stop-opacity="0"/>
</linearGradient>
<linearGradient id="paint16_linear_1938_25402" x1="305.924" y1="194.535" x2="292.99" y2="391.863" gradientUnits="userSpaceOnUse">
<stop stop-color="#FF6565"/>
<stop offset="1" stop-color="#FF7272" stop-opacity="0"/>
</linearGradient>
<linearGradient id="paint17_linear_1938_25402" x1="297.223" y1="205.342" x2="285.032" y2="391.342" gradientUnits="userSpaceOnUse">
<stop stop-color="#FF6565"/>
<stop offset="1" stop-color="#FF7272" stop-opacity="0"/>
</linearGradient>
<linearGradient id="paint18_linear_1938_25402" x1="288.522" y1="216.148" x2="277.074" y2="390.82" gradientUnits="userSpaceOnUse">
<stop stop-color="#FF6565"/>
<stop offset="1" stop-color="#FF7272" stop-opacity="0"/>
</linearGradient>
</defs>
</svg>
