<svg width="28" height="28" viewBox="0 0 28 28" fill="none" xmlns="http://www.w3.org/2000/svg">
<g clip-path="url(#clip0_298_8046)">
<path d="M20.2222 0.666626H7.77779C3.85044 0.666626 0.666687 3.85038 0.666687 7.77773V20.2222C0.666687 24.1495 3.85044 27.3333 7.77779 27.3333H20.2222C24.1496 27.3333 27.3334 24.1495 27.3334 20.2222V7.77773C27.3334 3.85038 24.1496 0.666626 20.2222 0.666626Z" fill="url(#paint0_linear_298_8046)"/>
<path d="M11.6667 14.7653C12.2013 14.7653 12.8212 14.8382 13.5263 14.9839C12.2866 15.6647 11.6667 16.5641 11.6667 17.682V19.432H6.23468V17.5C6.23468 16.941 6.56887 16.4427 7.23724 16.0051C7.90561 15.5675 8.64087 15.2514 9.44301 15.057C10.2452 14.8625 10.9864 14.7653 11.6667 14.7653ZM17.5 15.568C18.3991 15.568 19.3348 15.7624 20.307 16.1513C21.2792 16.5402 21.7653 17.0507 21.7653 17.6828V19.4328H13.2339V17.6828C13.2339 17.0507 13.72 16.5402 14.6922 16.1513C15.6645 15.7624 16.6001 15.568 17.4992 15.568H17.5ZM11.6667 13.2347C11.0346 13.2347 10.4878 13.0037 10.0263 12.5417C9.56487 12.0797 9.33387 11.5329 9.33335 10.9013C9.33283 10.2698 9.56383 9.72299 10.0263 9.26099C10.4889 8.79899 11.0356 8.56799 11.6667 8.56799C12.2977 8.56799 12.8445 8.79899 13.307 9.26099C13.7695 9.72299 14.0005 10.2698 14 10.9013C13.9995 11.5329 13.7685 12.0797 13.307 12.5417C12.8455 13.0037 12.2988 13.2347 11.6667 13.2347ZM17.5 14C16.9654 14 16.5096 13.8115 16.1327 13.4345C15.7557 13.0576 15.5672 12.6018 15.5672 12.0672C15.5672 11.5326 15.7557 11.0709 16.1327 10.682C16.5096 10.2931 16.9654 10.0987 17.5 10.0987C18.0346 10.0987 18.4904 10.2931 18.8673 10.682C19.2443 11.0709 19.4328 11.5326 19.4328 12.0672C19.4328 12.6018 19.2443 13.0576 18.8673 13.4345C18.4904 13.8115 18.0346 14 17.5 14Z" fill="white"/>
</g>
<defs>
<linearGradient id="paint0_linear_298_8046" x1="14" y1="0.666626" x2="14" y2="27.3333" gradientUnits="userSpaceOnUse">
<stop stop-color="#FF8C85"/>
<stop offset="1" stop-color="#FA5032"/>
</linearGradient>
<clipPath id="clip0_298_8046">
<rect width="26.6667" height="26.6667" fill="white" transform="translate(0.666687 0.666626)"/>
</clipPath>
</defs>
</svg>
